<?xml version="1.0" encoding="utf-8"?>
<!-- Generator: Adobe Illustrator 19.2.1, SVG Export Plug-In . SVG Version: 6.00 Build 0)  -->
<svg version="1.1" id="Слой_1" xmlns="http://www.w3.org/2000/svg" xmlns:xlink="http://www.w3.org/1999/xlink" x="0px" y="0px"
	 viewBox="0 0 161 161" style="enable-background:new 0 0 161 161;" xml:space="preserve">
<style type="text/css">
	.st0{fill:url(#SVGID_1_);}
	.st1{opacity:0.5;}
	.st2{opacity:0.1;fill:#FFFFFF;}
</style>
<g>
	<g>
		<linearGradient id="SVGID_1_" gradientUnits="userSpaceOnUse" x1="0.2431" y1="80.4005" x2="160.8347" y2="80.4005">
			<stop  offset="0" style="stop-color:#BB4880"/>
			<stop  offset="0.1395" style="stop-color:#BF4C78"/>
			<stop  offset="0.3554" style="stop-color:#CB5862"/>
			<stop  offset="0.6206" style="stop-color:#DE6B3F"/>
			<stop  offset="0.9223" style="stop-color:#F8860E"/>
			<stop  offset="1" style="stop-color:#FF8D00"/>
		</linearGradient>
		<polygon class="st0" points="47.3,160.7 0.2,113.7 0.2,47.1 47.3,0.1 113.8,0.1 160.8,47.1 160.8,113.7 113.8,160.7 		"/>
	</g>
</g>
<g class="st1">
	<polygon class="st2" points="160.8,47.1 113.8,0.1 127.6,33.4 	"/>
	<polygon class="st2" points="160.8,47.1 113.8,0.1 127.6,33.4 	"/>
	<polygon class="st2" points="160.8,47.1 113.8,0.1 127.6,33.4 	"/>
	<polygon class="st2" points="160.8,47.1 113.8,0.1 127.6,33.4 	"/>
	<polygon class="st2" points="160.8,47.1 113.8,0.1 127.6,33.4 	"/>
	<polygon class="st2" points="160.8,47.1 113.8,0.1 127.6,33.4 	"/>
	<polygon class="st2" points="160.8,47.1 113.8,0.1 127.6,33.4 	"/>
	<polygon class="st2" points="160.8,47.1 113.8,0.1 127.6,33.4 	"/>
	<polygon class="st2" points="160.8,47.1 113.8,0.1 127.6,33.4 	"/>
	<polygon class="st2" points="160.8,47.1 113.8,0.1 127.6,33.4 	"/>
	<polygon class="st2" points="113.8,0.1 47.3,0.1 80.5,13.9 	"/>
	<polygon class="st2" points="113.8,0.1 47.3,0.1 80.5,13.9 	"/>
	<polygon class="st2" points="113.8,0.1 47.3,0.1 80.5,13.9 	"/>
	<polygon class="st2" points="113.8,0.1 47.3,0.1 80.5,13.9 	"/>
	<polygon class="st2" points="113.8,0.1 47.3,0.1 80.5,13.9 	"/>
	<polygon class="st2" points="113.8,0.1 47.3,0.1 80.5,13.9 	"/>
	<polygon class="st2" points="113.8,0.1 47.3,0.1 80.5,13.9 	"/>
	<polygon class="st2" points="113.8,0.1 47.3,0.1 80.5,13.9 	"/>
	<polygon class="st2" points="113.8,0.1 47.3,0.1 80.5,13.9 	"/>
	<polygon class="st2" points="127.6,33.4 113.8,0.1 80.5,13.9 	"/>
	<polygon class="st2" points="127.6,33.4 113.8,0.1 80.5,13.9 	"/>
	<polygon class="st2" points="127.6,33.4 113.8,0.1 80.5,13.9 	"/>
	<polygon class="st2" points="147.1,80.4 160.8,113.7 160.8,47.1 	"/>
	<polygon class="st2" points="147.1,80.4 160.8,113.7 160.8,47.1 	"/>
	<polygon class="st2" points="147.1,80.4 160.8,113.7 160.8,47.1 	"/>
	<polygon class="st2" points="147.1,80.4 160.8,113.7 160.8,47.1 	"/>
	<polygon class="st2" points="147.1,80.4 160.8,113.7 160.8,47.1 	"/>
	<polygon class="st2" points="147.1,80.4 160.8,113.7 160.8,47.1 	"/>
	<polygon class="st2" points="147.1,80.4 160.8,113.7 160.8,47.1 	"/>
	<polygon class="st2" points="147.1,80.4 160.8,113.7 160.8,47.1 	"/>
	<polygon class="st2" points="147.1,80.4 160.8,113.7 160.8,47.1 	"/>
	<polygon class="st2" points="147.1,80.4 160.8,113.7 160.8,47.1 	"/>
	<polygon class="st2" points="147.1,80.4 160.8,47.1 127.6,33.4 	"/>
	<polygon class="st2" points="147.1,80.4 160.8,47.1 127.6,33.4 	"/>
	<polygon class="st2" points="147.1,80.4 160.8,47.1 127.6,33.4 	"/>
	<polygon class="st2" points="113.8,160.7 160.8,113.7 127.6,127.4 	"/>
	<polygon class="st2" points="113.8,160.7 160.8,113.7 127.6,127.4 	"/>
	<polygon class="st2" points="113.8,160.7 160.8,113.7 127.6,127.4 	"/>
	<polygon class="st2" points="113.8,160.7 160.8,113.7 127.6,127.4 	"/>
	<polygon class="st2" points="113.8,160.7 160.8,113.7 127.6,127.4 	"/>
	<polygon class="st2" points="113.8,160.7 160.8,113.7 127.6,127.4 	"/>
	<polygon class="st2" points="113.8,160.7 160.8,113.7 127.6,127.4 	"/>
	<polygon class="st2" points="113.8,160.7 160.8,113.7 127.6,127.4 	"/>
	<polygon class="st2" points="113.8,160.7 160.8,113.7 127.6,127.4 	"/>
	<polygon class="st2" points="113.8,160.7 160.8,113.7 127.6,127.4 	"/>
	<polygon class="st2" points="127.6,127.4 160.8,113.7 147.1,80.4 	"/>
	<polygon class="st2" points="127.6,127.4 160.8,113.7 147.1,80.4 	"/>
	<polygon class="st2" points="127.6,127.4 160.8,113.7 147.1,80.4 	"/>
	<polygon class="st2" points="47.3,160.7 113.8,160.7 80.5,146.9 	"/>
	<polygon class="st2" points="47.3,160.7 113.8,160.7 80.5,146.9 	"/>
	<polygon class="st2" points="47.3,160.7 113.8,160.7 80.5,146.9 	"/>
	<polygon class="st2" points="47.3,160.7 113.8,160.7 80.5,146.9 	"/>
	<polygon class="st2" points="47.3,160.7 113.8,160.7 80.5,146.9 	"/>
	<polygon class="st2" points="47.3,160.7 113.8,160.7 80.5,146.9 	"/>
	<polygon class="st2" points="47.3,160.7 113.8,160.7 80.5,146.9 	"/>
	<polygon class="st2" points="47.3,160.7 113.8,160.7 80.5,146.9 	"/>
	<polygon class="st2" points="47.3,160.7 113.8,160.7 80.5,146.9 	"/>
	<polygon class="st2" points="80.5,146.9 113.8,160.7 127.6,127.4 	"/>
	<polygon class="st2" points="80.5,146.9 113.8,160.7 127.6,127.4 	"/>
	<polygon class="st2" points="80.5,146.9 113.8,160.7 127.6,127.4 	"/>
	<polygon class="st2" points="0.2,113.7 47.3,160.7 33.5,127.4 	"/>
	<polygon class="st2" points="0.2,113.7 47.3,160.7 33.5,127.4 	"/>
	<polygon class="st2" points="0.2,113.7 47.3,160.7 33.5,127.4 	"/>
	<polygon class="st2" points="0.2,113.7 47.3,160.7 33.5,127.4 	"/>
	<polygon class="st2" points="0.2,113.7 47.3,160.7 33.5,127.4 	"/>
	<polygon class="st2" points="0.2,113.7 47.3,160.7 33.5,127.4 	"/>
	<polygon class="st2" points="0.2,113.7 47.3,160.7 33.5,127.4 	"/>
	<polygon class="st2" points="0.2,113.7 47.3,160.7 33.5,127.4 	"/>
	<polygon class="st2" points="33.5,127.4 47.3,160.7 80.5,146.9 	"/>
	<polygon class="st2" points="33.5,127.4 47.3,160.7 80.5,146.9 	"/>
	<polygon class="st2" points="0.2,47.1 0.2,113.7 14,80.4 	"/>
	<polygon class="st2" points="0.2,47.1 0.2,113.7 14,80.4 	"/>
	<polygon class="st2" points="0.2,47.1 0.2,113.7 14,80.4 	"/>
	<polygon class="st2" points="0.2,47.1 0.2,113.7 14,80.4 	"/>
	<polygon class="st2" points="0.2,47.1 0.2,113.7 14,80.4 	"/>
	<polygon class="st2" points="0.2,47.1 0.2,113.7 14,80.4 	"/>
	<polygon class="st2" points="0.2,47.1 0.2,113.7 14,80.4 	"/>
	<polygon class="st2" points="0.2,47.1 0.2,113.7 14,80.4 	"/>
	<polygon class="st2" points="14,80.4 0.2,113.7 33.5,127.4 	"/>
	<polygon class="st2" points="14,80.4 0.2,113.7 33.5,127.4 	"/>
	<polygon class="st2" points="47.3,0.1 0.2,47.1 33.5,33.4 	"/>
	<polygon class="st2" points="47.3,0.1 0.2,47.1 33.5,33.4 	"/>
	<polygon class="st2" points="47.3,0.1 0.2,47.1 33.5,33.4 	"/>
	<polygon class="st2" points="47.3,0.1 0.2,47.1 33.5,33.4 	"/>
	<polygon class="st2" points="47.3,0.1 0.2,47.1 33.5,33.4 	"/>
	<polygon class="st2" points="47.3,0.1 0.2,47.1 33.5,33.4 	"/>
	<polygon class="st2" points="47.3,0.1 0.2,47.1 33.5,33.4 	"/>
	<polygon class="st2" points="47.3,0.1 0.2,47.1 33.5,33.4 	"/>
	<polygon class="st2" points="33.5,33.4 0.2,47.1 14,80.4 	"/>
	<polygon class="st2" points="33.5,33.4 0.2,47.1 14,80.4 	"/>
	<polygon class="st2" points="80.5,13.9 47.3,0.1 33.5,33.4 	"/>
	<polygon class="st2" points="80.5,13.9 47.3,0.1 33.5,33.4 	"/>
</g>
</svg>
