<?xml version="1.0" encoding="utf-8"?>
<!-- Generator: Adobe Illustrator 19.2.1, SVG Export Plug-In . SVG Version: 6.00 Build 0)  -->
<svg version="1.1" id="Слой_1" xmlns="http://www.w3.org/2000/svg" xmlns:xlink="http://www.w3.org/1999/xlink" x="0px" y="0px"
	 viewBox="0 0 161 161" style="enable-background:new 0 0 161 161;" xml:space="preserve">
<style type="text/css">
	.st0{fill:url(#SVGID_1_);}
	.st1{opacity:0.5;}
	.st2{opacity:0.1;fill:#FFFFFF;}
</style>
<g>
	
		<image style="overflow:visible;opacity:0.5;" width="1295" height="1295" xlink:href="10E17251.png"  transform="matrix(0.24 0 0 0.24 -74.9 -74.9)">
	</image>
	<g>
		<linearGradient id="SVGID_1_" gradientUnits="userSpaceOnUse" x1="0.1" y1="80.3958" x2="160.6916" y2="80.3958">
			<stop  offset="0" style="stop-color:#DA94B3"/>
			<stop  offset="0.2096" style="stop-color:#DE97AB"/>
			<stop  offset="0.5336" style="stop-color:#E8A195"/>
			<stop  offset="0.9296" style="stop-color:#F8B072"/>
			<stop  offset="1" style="stop-color:#FBB36B"/>
		</linearGradient>
		<polygon class="st0" points="47.1,160.7 0.1,113.7 0.1,47.1 47.1,0.1 113.7,0.1 160.7,47.1 160.7,113.7 113.7,160.7 		"/>
	</g>
</g>
<g class="st1">
	<polygon class="st2" points="160.7,47.1 113.7,0.1 127.4,33.4 	"/>
	<polygon class="st2" points="160.7,47.1 113.7,0.1 127.4,33.4 	"/>
	<polygon class="st2" points="160.7,47.1 113.7,0.1 127.4,33.4 	"/>
	<polygon class="st2" points="160.7,47.1 113.7,0.1 127.4,33.4 	"/>
	<polygon class="st2" points="160.7,47.1 113.7,0.1 127.4,33.4 	"/>
	<polygon class="st2" points="160.7,47.1 113.7,0.1 127.4,33.4 	"/>
	<polygon class="st2" points="160.7,47.1 113.7,0.1 127.4,33.4 	"/>
	<polygon class="st2" points="160.7,47.1 113.7,0.1 127.4,33.4 	"/>
	<polygon class="st2" points="160.7,47.1 113.7,0.1 127.4,33.4 	"/>
	<polygon class="st2" points="160.7,47.1 113.7,0.1 127.4,33.4 	"/>
	<polygon class="st2" points="113.7,0.1 47.1,0.1 80.4,13.9 	"/>
	<polygon class="st2" points="113.7,0.1 47.1,0.1 80.4,13.9 	"/>
	<polygon class="st2" points="113.7,0.1 47.1,0.1 80.4,13.9 	"/>
	<polygon class="st2" points="113.7,0.1 47.1,0.1 80.4,13.9 	"/>
	<polygon class="st2" points="113.7,0.1 47.1,0.1 80.4,13.9 	"/>
	<polygon class="st2" points="113.7,0.1 47.1,0.1 80.4,13.9 	"/>
	<polygon class="st2" points="113.7,0.1 47.1,0.1 80.4,13.9 	"/>
	<polygon class="st2" points="113.7,0.1 47.1,0.1 80.4,13.9 	"/>
	<polygon class="st2" points="113.7,0.1 47.1,0.1 80.4,13.9 	"/>
	<polygon class="st2" points="127.4,33.4 113.7,0.1 80.4,13.9 	"/>
	<polygon class="st2" points="127.4,33.4 113.7,0.1 80.4,13.9 	"/>
	<polygon class="st2" points="127.4,33.4 113.7,0.1 80.4,13.9 	"/>
	<polygon class="st2" points="146.9,80.4 160.7,113.7 160.7,47.1 	"/>
	<polygon class="st2" points="146.9,80.4 160.7,113.7 160.7,47.1 	"/>
	<polygon class="st2" points="146.9,80.4 160.7,113.7 160.7,47.1 	"/>
	<polygon class="st2" points="146.9,80.4 160.7,113.7 160.7,47.1 	"/>
	<polygon class="st2" points="146.9,80.4 160.7,113.7 160.7,47.1 	"/>
	<polygon class="st2" points="146.9,80.4 160.7,113.7 160.7,47.1 	"/>
	<polygon class="st2" points="146.9,80.4 160.7,113.7 160.7,47.1 	"/>
	<polygon class="st2" points="146.9,80.4 160.7,113.7 160.7,47.1 	"/>
	<polygon class="st2" points="146.9,80.4 160.7,113.7 160.7,47.1 	"/>
	<polygon class="st2" points="146.9,80.4 160.7,113.7 160.7,47.1 	"/>
	<polygon class="st2" points="146.9,80.4 160.7,47.1 127.4,33.4 	"/>
	<polygon class="st2" points="146.9,80.4 160.7,47.1 127.4,33.4 	"/>
	<polygon class="st2" points="146.9,80.4 160.7,47.1 127.4,33.4 	"/>
	<polygon class="st2" points="113.7,160.7 160.7,113.7 127.4,127.4 	"/>
	<polygon class="st2" points="113.7,160.7 160.7,113.7 127.4,127.4 	"/>
	<polygon class="st2" points="113.7,160.7 160.7,113.7 127.4,127.4 	"/>
	<polygon class="st2" points="113.7,160.7 160.7,113.7 127.4,127.4 	"/>
	<polygon class="st2" points="113.7,160.7 160.7,113.7 127.4,127.4 	"/>
	<polygon class="st2" points="113.7,160.7 160.7,113.7 127.4,127.4 	"/>
	<polygon class="st2" points="113.7,160.7 160.7,113.7 127.4,127.4 	"/>
	<polygon class="st2" points="113.7,160.7 160.7,113.7 127.4,127.4 	"/>
	<polygon class="st2" points="113.7,160.7 160.7,113.7 127.4,127.4 	"/>
	<polygon class="st2" points="113.7,160.7 160.7,113.7 127.4,127.4 	"/>
	<polygon class="st2" points="127.4,127.4 160.7,113.7 146.9,80.4 	"/>
	<polygon class="st2" points="127.4,127.4 160.7,113.7 146.9,80.4 	"/>
	<polygon class="st2" points="127.4,127.4 160.7,113.7 146.9,80.4 	"/>
	<polygon class="st2" points="47.1,160.7 113.7,160.7 80.4,146.9 	"/>
	<polygon class="st2" points="47.1,160.7 113.7,160.7 80.4,146.9 	"/>
	<polygon class="st2" points="47.1,160.7 113.7,160.7 80.4,146.9 	"/>
	<polygon class="st2" points="47.1,160.7 113.7,160.7 80.4,146.9 	"/>
	<polygon class="st2" points="47.1,160.7 113.7,160.7 80.4,146.9 	"/>
	<polygon class="st2" points="47.1,160.7 113.7,160.7 80.4,146.9 	"/>
	<polygon class="st2" points="47.1,160.7 113.7,160.7 80.4,146.9 	"/>
	<polygon class="st2" points="47.1,160.7 113.7,160.7 80.4,146.9 	"/>
	<polygon class="st2" points="47.1,160.7 113.7,160.7 80.4,146.9 	"/>
	<polygon class="st2" points="80.4,146.9 113.7,160.7 127.4,127.4 	"/>
	<polygon class="st2" points="80.4,146.9 113.7,160.7 127.4,127.4 	"/>
	<polygon class="st2" points="80.4,146.9 113.7,160.7 127.4,127.4 	"/>
	<polygon class="st2" points="0.1,113.7 47.1,160.7 33.4,127.4 	"/>
	<polygon class="st2" points="0.1,113.7 47.1,160.7 33.4,127.4 	"/>
	<polygon class="st2" points="0.1,113.7 47.1,160.7 33.4,127.4 	"/>
	<polygon class="st2" points="0.1,113.7 47.1,160.7 33.4,127.4 	"/>
	<polygon class="st2" points="0.1,113.7 47.1,160.7 33.4,127.4 	"/>
	<polygon class="st2" points="0.1,113.7 47.1,160.7 33.4,127.4 	"/>
	<polygon class="st2" points="0.1,113.7 47.1,160.7 33.4,127.4 	"/>
	<polygon class="st2" points="0.1,113.7 47.1,160.7 33.4,127.4 	"/>
	<polygon class="st2" points="33.4,127.4 47.1,160.7 80.4,146.9 	"/>
	<polygon class="st2" points="33.4,127.4 47.1,160.7 80.4,146.9 	"/>
	<polygon class="st2" points="0.1,47.1 0.1,113.7 13.9,80.4 	"/>
	<polygon class="st2" points="0.1,47.1 0.1,113.7 13.9,80.4 	"/>
	<polygon class="st2" points="0.1,47.1 0.1,113.7 13.9,80.4 	"/>
	<polygon class="st2" points="0.1,47.1 0.1,113.7 13.9,80.4 	"/>
	<polygon class="st2" points="0.1,47.1 0.1,113.7 13.9,80.4 	"/>
	<polygon class="st2" points="0.1,47.1 0.1,113.7 13.9,80.4 	"/>
	<polygon class="st2" points="0.1,47.1 0.1,113.7 13.9,80.4 	"/>
	<polygon class="st2" points="0.1,47.1 0.1,113.7 13.9,80.4 	"/>
	<polygon class="st2" points="13.9,80.4 0.1,113.7 33.4,127.4 	"/>
	<polygon class="st2" points="13.9,80.4 0.1,113.7 33.4,127.4 	"/>
	<polygon class="st2" points="47.1,0.1 0.1,47.1 33.4,33.4 	"/>
	<polygon class="st2" points="47.1,0.1 0.1,47.1 33.4,33.4 	"/>
	<polygon class="st2" points="47.1,0.1 0.1,47.1 33.4,33.4 	"/>
	<polygon class="st2" points="47.1,0.1 0.1,47.1 33.4,33.4 	"/>
	<polygon class="st2" points="47.1,0.1 0.1,47.1 33.4,33.4 	"/>
	<polygon class="st2" points="47.1,0.1 0.1,47.1 33.4,33.4 	"/>
	<polygon class="st2" points="47.1,0.1 0.1,47.1 33.4,33.4 	"/>
	<polygon class="st2" points="47.1,0.1 0.1,47.1 33.4,33.4 	"/>
	<polygon class="st2" points="33.4,33.4 0.1,47.1 13.9,80.4 	"/>
	<polygon class="st2" points="33.4,33.4 0.1,47.1 13.9,80.4 	"/>
	<polygon class="st2" points="80.4,13.9 47.1,0.1 33.4,33.4 	"/>
	<polygon class="st2" points="80.4,13.9 47.1,0.1 33.4,33.4 	"/>
</g>
</svg>
