<?xml version="1.0" encoding="utf-8"?>
<!-- Generator: Adobe Illustrator 19.2.1, SVG Export Plug-In . SVG Version: 6.00 Build 0)  -->
<svg version="1.1" id="Слой_1" xmlns="http://www.w3.org/2000/svg" xmlns:xlink="http://www.w3.org/1999/xlink" x="0px" y="0px"
	 viewBox="0 0 39.7 33.6" style="enable-background:new 0 0 39.7 33.6;" xml:space="preserve">
<style type="text/css">
	.st0{fill:#FFFFFF;}
</style>
<g>
	<path class="st0" d="M39.6,6.2C39.6,6.1,39.6,6.1,39.6,6.2L39.6,6.2l-12-6c-0.1,0-0.2-0.1-0.3-0.1c-0.1,0-0.2,0-0.3,0
		c-0.5,0-0.9,0.2-1.2,0.6l-6.9,11.2l8.7,14.1l12-19.6C39.7,6.3,39.7,6.2,39.6,6.2z"/>
	<polygon class="st0" points="15.1,9.3 15.1,22.1 26.5,27.7 	"/>
	<path class="st0" d="M28.2,28.6l9.3,4.7c1.2,0.6,2.2,0.2,2.2-1V9.8L28.2,28.6z"/>
	<path class="st0" d="M13.2,6.2L1.5,0.3C1.3,0.2,1.1,0.2,0.9,0.2C0.4,0.2,0,0.6,0,1.2v25.3c0,0.7,0.5,1.5,1.1,1.8l10.3,5.2
		c0.3,0.1,0.5,0.2,0.7,0.2c0.6,0,1.1-0.5,1.1-1.3v-26C13.2,6.2,13.2,6.2,13.2,6.2z"/>
</g>
</svg>
