<?xml version="1.0" encoding="utf-8"?>
<!-- Generator: Adobe Illustrator 19.2.1, SVG Export Plug-In . SVG Version: 6.00 Build 0)  -->
<svg version="1.1" id="Слой_1" xmlns="http://www.w3.org/2000/svg" xmlns:xlink="http://www.w3.org/1999/xlink" x="0px" y="0px"
	 viewBox="0 0 45 38.8" style="enable-background:new 0 0 45 38.8;" xml:space="preserve">
<style type="text/css">
	.st0{fill:#FFFFFF;}
</style>
<g>
	<path class="st0" d="M31.3,12.8c-4.2,0.2-7.8,1.5-10.8,4.3c-3,2.9-4.3,6.4-4,10.8c-1.6-0.2-3.1-0.4-4.6-0.6c-0.5,0-1.1,0-1.6,0.3
		c-1.5,0.8-2.8,1.7-4.5,2.8c0.3-1.4,0.5-2.6,0.8-3.7c0.3-0.8,0.1-1.3-0.6-1.9C1,21.3-1.1,16,0.5,10.5c1.5-5,5.1-8.1,9.9-9.7
		c6.7-2.2,14.2,0,18.2,5.3C30.1,8.1,31,10.2,31.3,12.8z M12,11.1c0-1-0.8-1.9-1.9-1.9c-1.1,0-1.9,0.8-1.9,1.8c0,1,0.8,1.9,1.8,1.9
		C11.1,12.9,12,12.1,12,11.1z M22.1,9.1c-1,0-1.9,0.9-1.9,1.9c0,1,0.9,1.9,1.9,1.8c1.1,0,1.9-0.8,1.9-1.9C24,9.9,23.1,9.1,22.1,9.1z
		"/>
	<path class="st0" d="M40.6,38.8c-1.3-0.6-2.5-1.5-3.8-1.6c-1.3-0.1-2.6,0.6-4,0.7c-4.1,0.4-7.8-0.7-10.8-3.5
		c-5.8-5.3-4.9-13.5,1.7-17.9c5.9-3.9,14.6-2.6,18.8,2.8c3.6,4.7,3.2,10.9-1.2,14.9c-1.3,1.1-1.8,2.1-0.9,3.6
		C40.5,38.1,40.6,38.5,40.6,38.8z M25.6,24.2c0.8,0,1.5-0.7,1.6-1.5c0-0.9-0.7-1.6-1.6-1.6c-0.9,0-1.6,0.7-1.6,1.6
		C24.1,23.6,24.8,24.2,25.6,24.2z M35.3,21.1c-0.8,0-1.5,0.7-1.5,1.5c0,0.9,0.7,1.6,1.5,1.6c0.8,0,1.5-0.6,1.5-1.5
		C36.9,21.9,36.2,21.1,35.3,21.1z"/>
</g>
</svg>
