<?xml version="1.0" encoding="UTF-8" standalone="no"?>
<!-- Generator: Adobe Illustrator 19.2.1, SVG Export Plug-In . SVG Version: 6.00 Build 0)  -->

<svg
   xmlns:dc="http://purl.org/dc/elements/1.1/"
   xmlns:cc="http://creativecommons.org/ns#"
   xmlns:rdf="http://www.w3.org/1999/02/22-rdf-syntax-ns#"
   xmlns:svg="http://www.w3.org/2000/svg"
   xmlns="http://www.w3.org/2000/svg"
   xmlns:sodipodi="http://sodipodi.sourceforge.net/DTD/sodipodi-0.dtd"
   xmlns:inkscape="http://www.inkscape.org/namespaces/inkscape"
   version="1.1"
   id="Слой_1"
   x="0px"
   y="0px"
   viewBox="0 0 23 23"
   style="enable-background:new 0 0 23 23;"
   xml:space="preserve"
   inkscape:version="0.91 r13725"
   sodipodi:docname="icon-lang.svg"><metadata
     id="metadata4194"><rdf:RDF><cc:Work
         rdf:about=""><dc:format>image/svg+xml</dc:format><dc:type
           rdf:resource="http://purl.org/dc/dcmitype/StillImage" /></cc:Work></rdf:RDF></metadata><defs
     id="defs4192" /><sodipodi:namedview
     pagecolor="#ffffff"
     bordercolor="#666666"
     borderopacity="1"
     objecttolerance="10"
     gridtolerance="10"
     guidetolerance="10"
     inkscape:pageopacity="0"
     inkscape:pageshadow="2"
     inkscape:window-width="1327"
     inkscape:window-height="744"
     id="namedview4190"
     showgrid="false"
     inkscape:zoom="39.956522"
     inkscape:cx="11.5"
     inkscape:cy="11.5"
     inkscape:window-x="39"
     inkscape:window-y="336"
     inkscape:window-maximized="1"
     inkscape:current-layer="Слой_1" /><style
     type="text/css"
     id="style4186">
	.st0{opacity:0.5;fill:#FFFFFF;}
</style><path
     class="st0"
     d="M11.5,0C5.2,0,0,5.2,0,11.5S5.2,23,11.5,23S23,17.9,23,11.5S17.9,0,11.5,0z M2.4,16.5c-0.7-1.3-1.2-2.8-1.2-4.4  c0.6,0.6,1.5,1.7,1.5,2.5C2.7,15.2,2.3,15.7,2.4,16.5z M11.5,21.9c-0.1,0-0.2,0-0.3,0c-0.3-0.6-0.7-1.5-0.9-2.5  c-0.3-1.8,0.3-2.5-1.3-3.5S6.8,15.2,5.9,15c-0.9-0.3-1.1-3,0-3.4C7,11.1,6.6,9.1,8.6,8.4s2-3,1.6-4.2C9.7,3,8.2,4,6.8,4.7  C5.9,5.2,4.2,5.4,3.1,5.4c1.9-2.6,5-4.3,8.4-4.3c1.1,0,2.1,0.2,3.1,0.5c-0.5,0.2-1.2,0.6-1,1.2c0.3,0.9,1.2,1.1,1.2,1.8  s-0.3,1.4,0.6,1.2c0.9-0.2,1.2-0.7,1.7-0.6c0.5,0.1,1.4,0.4,0.7,0.8s-1.4,0.9-1.4,0.9l-1,0.3L13.9,8l-1,0.9c0,0-0.2-0.2,0,1.3  c0.2,1.5,2.9,1.9,4.2,1.4c1.3-0.5,0.4,2.1,0.3,2.9s0.2,1-0.3,1.5c-0.5,0.5-1.5,1.1-0.6,1.4c0,0,3.3-1.8,4.3-3.8c0.6-1.3,1-2.4,1.1-3  c0,0.4,0.1,0.7,0.1,1.1C21.9,17.3,17.3,21.9,11.5,21.9z"
     id="path4188"
     style="opacity:1" /></svg>