<?xml version="1.0" encoding="utf-8"?>
<!-- Generator: Adobe Illustrator 19.2.1, SVG Export Plug-In . SVG Version: 6.00 Build 0)  -->
<svg version="1.1" id="Слой_1" xmlns="http://www.w3.org/2000/svg" xmlns:xlink="http://www.w3.org/1999/xlink" x="0px" y="0px"
	 viewBox="0 0 33 33" style="enable-background:new 0 0 33 33;" xml:space="preserve">
<style type="text/css">
	.st0{opacity:0.68;}
	.st1{fill:url(#SVGID_1_);}
	.st2{fill-rule:evenodd;clip-rule:evenodd;fill:none;stroke:url(#SVGID_2_);stroke-width:2;stroke-miterlimit:10;}
</style>
<g class="st0">
	<linearGradient id="SVGID_1_" gradientUnits="userSpaceOnUse" x1="11.1186" y1="16.5" x2="23.4183" y2="16.5">
		<stop  offset="0" style="stop-color:#F29222"/>
		<stop  offset="1" style="stop-color:#F26522"/>
	</linearGradient>
	<path class="st1" d="M22.7,15.2l-9.4-5.4c-1-0.6-2.2,0.1-2.2,1.3v10.8c0,1.1,1.2,1.8,2.2,1.3l9.4-5.4
		C23.7,17.2,23.7,15.8,22.7,15.2z M21.1,16.7l-8.1,4.7c-0.1,0.1-0.3,0-0.3-0.2v-9.3c0-0.1,0.2-0.2,0.3-0.2l8.1,4.7
		C21.3,16.4,21.3,16.6,21.1,16.7z"/>
	<linearGradient id="SVGID_2_" gradientUnits="userSpaceOnUse" x1="0" y1="16.5" x2="33" y2="16.5">
		<stop  offset="0" style="stop-color:#F29222"/>
		<stop  offset="1" style="stop-color:#F26522"/>
	</linearGradient>
	<circle class="st2" cx="16.5" cy="16.5" r="15.5"/>
</g>
</svg>
