<?xml version="1.0" encoding="utf-8"?>
<!-- Generator: Adobe Illustrator 19.2.1, SVG Export Plug-In . SVG Version: 6.00 Build 0)  -->
<svg version="1.1" id="Слой_1" xmlns="http://www.w3.org/2000/svg" xmlns:xlink="http://www.w3.org/1999/xlink" x="0px" y="0px"
	 viewBox="0 0 121 121" style="enable-background:new 0 0 121 121;" xml:space="preserve">
<style type="text/css">
	.st0{fill:url(#SVGID_1_);}
	.st1{fill:none;stroke:url(#SVGID_2_);stroke-width:3;stroke-miterlimit:10;}
	.st2{fill:none;stroke:url(#SVGID_3_);stroke-width:3;stroke-miterlimit:10;}
</style>
<g>
	<linearGradient id="SVGID_1_" gradientUnits="userSpaceOnUse" x1="49.1328" y1="59.9991" x2="71.8672" y2="59.9991">
		<stop  offset="0" style="stop-color:#F29222"/>
		<stop  offset="1" style="stop-color:#F26522"/>
	</linearGradient>
	<path class="st0" d="M61.9,76v5h-2.7v-4.9c-4.3-0.2-7.2-1.5-10-4.3l2.4-2.4c2.4,2.4,4.7,3.4,7.9,3.5V60.8l-0.9-0.1
		c-2.5-0.2-4.7-1.4-5.9-2.5c-1.6-1.5-2.5-3.5-2.5-6.1c0-5.2,3.5-8.7,9.2-9.1V39h2.7v4.1c3.5,0.2,6,1.3,8.5,3.5l-2.2,2.2
		c-1.7-1.6-3.6-2.6-6.4-2.7v11.8l1.4,0.2c3,0.5,4.5,1.1,5.9,2.3c1.8,1.5,2.8,3.7,2.8,6.4C71.9,72.1,67.9,75.6,61.9,76z M59.4,46.1
		c-3.8,0.3-5.9,2.6-5.9,6c0,1.6,0.5,2.9,1.5,3.7c1.3,1.1,2.9,1.6,4.5,1.8V46.1z M66.8,62.9c-1.5-1.3-3.1-1.4-5-1.7v11.7
		c4.1-0.3,6.6-2.5,6.6-6C68.4,65.2,67.8,63.8,66.8,62.9z"/>
</g>
<linearGradient id="SVGID_2_" gradientUnits="userSpaceOnUse" x1="14.5" y1="60.5" x2="106.5" y2="60.5">
	<stop  offset="0" style="stop-color:#F29222"/>
	<stop  offset="1" style="stop-color:#F26522"/>
</linearGradient>
<circle class="st1" cx="60.5" cy="60.5" r="44.5"/>
<linearGradient id="SVGID_3_" gradientUnits="userSpaceOnUse" x1="0" y1="60.5" x2="121" y2="60.5">
	<stop  offset="0" style="stop-color:#F29222"/>
	<stop  offset="1" style="stop-color:#F26522"/>
</linearGradient>
<circle class="st2" cx="60.5" cy="60.5" r="59"/>
</svg>
