<?xml version="1.0" encoding="UTF-8" standalone="no"?>
<!-- Generator: Adobe Illustrator 19.2.1, SVG Export Plug-In . SVG Version: 6.00 Build 0)  -->

<svg
   xmlns:dc="http://purl.org/dc/elements/1.1/"
   xmlns:cc="http://creativecommons.org/ns#"
   xmlns:rdf="http://www.w3.org/1999/02/22-rdf-syntax-ns#"
   xmlns:svg="http://www.w3.org/2000/svg"
   xmlns="http://www.w3.org/2000/svg"
   xmlns:sodipodi="http://sodipodi.sourceforge.net/DTD/sodipodi-0.dtd"
   xmlns:inkscape="http://www.inkscape.org/namespaces/inkscape"
   version="1.1"
   id="Слой_1"
   x="0px"
   y="0px"
   viewBox="0 0 57.3 42.2"
   style="enable-background:new 0 0 57.3 42.2;"
   xml:space="preserve"
   inkscape:version="0.91 r13725"
   sodipodi:docname="icon-history-2w.svg"><metadata
     id="metadata17"><rdf:RDF><cc:Work
         rdf:about=""><dc:format>image/svg+xml</dc:format><dc:type
           rdf:resource="http://purl.org/dc/dcmitype/StillImage" /><dc:title></dc:title></cc:Work></rdf:RDF></metadata><defs
     id="defs15" /><sodipodi:namedview
     pagecolor="#ffffff"
     bordercolor="#666666"
     borderopacity="1"
     objecttolerance="10"
     gridtolerance="10"
     guidetolerance="10"
     inkscape:pageopacity="0"
     inkscape:pageshadow="2"
     inkscape:window-width="1317"
     inkscape:window-height="604"
     id="namedview13"
     showgrid="false"
     inkscape:zoom="5.4799303"
     inkscape:cx="28.65"
     inkscape:cy="21.1"
     inkscape:window-x="49"
     inkscape:window-y="336"
     inkscape:window-maximized="0"
     inkscape:current-layer="Слой_1" /><style
     type="text/css"
     id="style3">
	.st0{fill:none;stroke:#FF8D00;stroke-width:2.126;stroke-miterlimit:10;}
</style><path
     class="st0"
     d="M1.1,41H40c0,0,1.7-13-12.4-13H12.2C12.2,27.9,1.3,27.9,1.1,41z"
     id="path5"
     style="stroke:#ffffff;stroke-opacity:1" /><path
     class="st0"
     d="M20.5,21.7c4.3,0,8.2-3.8,8.2-12.9c0-8.6-8.2-7.7-8.2-7.7s-8.2-1-8.2,7.7C12.3,17.8,16.2,21.7,20.5,21.7  L20.5,21.7z"
     id="path7"
     style="stroke:#ffffff;stroke-opacity:1" /><path
     class="st0"
     d="M44.4,41.2h11.8c0,0,1.4-10.8-10.3-10.8h-3.7"
     id="path9"
     style="stroke:#ffffff;stroke-opacity:1" /><path
     class="st0"
     d="M40,25.1c3.6,0,6.9-3.2,6.9-10.7C46.9,7.2,40,8,40,8s-6.9-0.8-6.9,6.4C33.2,21.9,36.4,25.1,40,25.1L40,25.1z"
     id="path11"
     style="stroke:#ffffff;stroke-opacity:1" /></svg>