<?xml version="1.0" encoding="utf-8"?>
<!-- Generator: Adobe Illustrator 19.2.1, SVG Export Plug-In . SVG Version: 6.00 Build 0)  -->
<svg version="1.1" id="Слой_1" xmlns="http://www.w3.org/2000/svg" xmlns:xlink="http://www.w3.org/1999/xlink" x="0px" y="0px"
	 viewBox="0 0 39.7 39.7" style="enable-background:new 0 0 39.7 39.7;" xml:space="preserve">
<style type="text/css">
	.st0{fill:#FFFFFF;}
</style>
<g>
	<path class="st0" d="M34.4,0h-29C2.4,0,0,2.4,0,5.4v29c0,3,2.4,5.4,5.4,5.4h14.3l0-14.2H16c-0.5,0-0.9-0.4-0.9-0.9l0-4.6
		c0-0.5,0.4-0.9,0.9-0.9h3.7v-4.4c0-5.1,3.1-7.9,7.7-7.9h3.8c0.5,0,0.9,0.4,0.9,0.9v3.9c0,0.5-0.4,0.9-0.9,0.9l-2.3,0
		c-2.5,0-3,1.2-3,2.9v3.8h5.5c0.5,0,0.9,0.5,0.9,1l-0.5,4.6c-0.1,0.4-0.4,0.8-0.9,0.8h-4.9l0,14.2h8.5c3,0,5.4-2.4,5.4-5.4v-29
		C39.7,2.4,37.3,0,34.4,0L34.4,0z M34.4,0"/>
</g>
</svg>
