<?xml version="1.0" encoding="utf-8"?>
<!-- Generator: Adobe Illustrator 19.2.1, SVG Export Plug-In . SVG Version: 6.00 Build 0)  -->
<svg version="1.1" id="Слой_1" xmlns="http://www.w3.org/2000/svg" xmlns:xlink="http://www.w3.org/1999/xlink" x="0px" y="0px"
	 viewBox="0 0 250 60.1" style="enable-background:new 0 0 250 60.1;" xml:space="preserve">
<style type="text/css">
	.st0{fill:#E9A520;}
	.st1{fill:#DEE1F3;}
	.st2{fill:#EBAC32;}
	.st3{fill:#EFC36C;}
	.st4{fill:#15A9E0;}
	.st5{fill:#16A9E0;}
	.st6{fill:#19AAE0;}
	.st7{fill:#F2CC82;}
</style>
<g>
	<g>
		<path class="st0" d="M39.5,40.3c-2.6-0.1-5.3,0.1-8-0.5C28,38.9,25,37.1,22.1,35c-2.2-1.6-4.4-3.2-6.6-4.8c-2.7-1.9-5.7-2.8-9-2.6
			c-2.1,0.1-4.2,0-6.4-0.1c0-0.1,0-0.2,0-0.4c0.6-2.5,0.6-5,0-7.5c0-0.1,0-0.2,0-0.4c1.6,0,3.3-0.2,5,0c5.8,0.6,10.3-2.1,14.5-5.6
			c5.8-4.8,12.2-8,20-7.2c0.2-0.2,0.1-0.4-0.2-0.4C38.2,5,37.2,3.9,36,2.9C35,2,34.8,1.1,35.3,0c0.2,0,0.5,0,0.7,0
			c2,0.6,4,0.6,6.1,0c0.1,0,0.2,0,0.4,0c3.6,2.6,6.4,6,9.5,9c1.2,1.2,1.2,2.3,0,3.6c-2.5,2.5-4.9,5-7.4,7.5c-0.9,0.9-2,1.4-3.4,1.3
			c-1.5,0-3,0-4.5,0c-0.7,0-1.4,0-1.7-0.7c-0.3-0.8,0.3-1.2,0.7-1.6c1.2-1.2,2.4-2.4,3.9-3.8c-3.6-0.4-6.8-0.1-9.8,1.6
			c-3,1.8-5.7,4.1-8.6,6.1c-0.7,0.5-0.6,0.7,0,1.1c2.7,1.9,5.4,3.8,8.1,5.7c3,2.1,6.5,2.5,10.5,2c-1.5-1.5-2.8-2.7-4.1-4
			c-0.4-0.4-0.9-0.9-0.6-1.5c0.3-0.6,0.9-0.7,1.5-0.7c1.6,0,3.2,0,4.8,0c1.2,0,2.3,0.5,3.2,1.4c2.4,2.5,4.9,4.9,7.3,7.3
			c1.3,1.4,1.4,2.4,0.1,3.7c-2.4,2.5-4.9,4.9-7.3,7.4c-0.9,0.9-2,1.4-3.4,1.4c-1.7,0-3.3-0.1-5-0.1c-0.5,0-1-0.1-1.2-0.6
			c-0.3-0.6,0-1,0.4-1.4c1.2-1.2,2.5-2.5,3.8-3.8C39.6,40.7,39.7,40.6,39.5,40.3z"/>
		<path class="st1" d="M225.6,60c0-1.2,0.1-2.4,0-3.6c-0.1-1.4,0.3-1.9,1.8-1.8c3.4,0.1,6.9,0,10.2-0.7c3.8-0.8,6.5-4.2,6.5-8.1
			c0.1-8,0-16,0-23.9c0-0.8,0.1-1.6-1.1-1.5c-3.4,0.2-6.7-0.1-10.1,0.3c-5.7,0.7-8.4,6.9-7.5,11.8c1.2,7.2,9.1,9.4,15.1,6.1
			c1.4-0.7,1.5-0.5,1.5,0.9c0,4.2-1.2,5.5-6.1,5.9c-7.1,0.5-14.1-3.6-15.8-11c-2-8.5,2.5-16.5,11.4-18.8c0.6-0.1,1.3-0.1,2-0.1
			c5.5,0,11,0,16.4,0c0,10.4,0,20.7,0,31.1c-0.1,0.1-0.3,0.3-0.3,0.4c-0.7,6.4-4.7,10-10.5,12.1c-1.4,0.5-2.9,0.4-4.2,1.1
			C231.8,60,228.8,60,225.6,60z"/>
		<path class="st2" d="M0,19.7c0.6,2.5,0.6,5,0,7.5C0,24.7,0,22.2,0,19.7z"/>
		<path class="st3" d="M42.1,0c-2,0.6-4,0.6-6.1,0C38.1,0,40.1,0,42.1,0z"/>
		<path class="st4" d="M160.5,15.1c-2.4,4.1-4.5,7.9-6.8,11.6c-0.6,1-0.7,1.5,0.6,2c3.6,1.4,5.3,4.4,6,8.1c0.5,2.5,0.3,5,0.4,7.5
			c0,0.8-0.2,1.1-1,1c-0.1,0-0.2,0-0.4,0c-4.2,0.1-4.3,0.1-4.2-4.1c0.2-7.9-5.8-9.9-11.5-9.3c-1,0.1-1,0.7-1,1.5c0,3.5,0,6.9,0,10.4
			c0,1.2-0.4,1.6-1.6,1.6c-3.9,0-3.9,0-3.9-3.9c0-12.9,0-25.7,0-38.5c0-1.4,0.3-1.8,1.7-1.8c3.7,0.1,3.7,0,3.7,3.7
			c0,6.8,0,13.6,0,20.3c0,1.2,0.2,1.6,1.7,1.8c3.3,0.6,4.6-1.2,5.7-3.7c1.1-2.4,2.6-4.7,3.8-7.1c0.4-0.9,1-1.2,2-1.1
			C157.1,15.2,158.6,15.1,160.5,15.1z"/>
		<path class="st5" d="M108.6,30.4c0,8.9-6.8,15.7-15.5,15.7c-8.6-0.1-15.3-7-15.2-16c0-8.8,6.8-15.6,15.4-15.6
			C101.9,14.6,108.6,21.5,108.6,30.4z M102.9,30.4c0-5.4-2.8-9.4-7.2-10.3c-4.9-1-9.3,1-11.2,5.2c-2.1,4.7-0.9,10.8,2.9,13.6
			c0.9,0.7,1.9,1.1,3,1.4C97.4,42.1,102.9,37.7,102.9,30.4z"/>
		<path class="st1" d="M198.4,14.7c8.6-0.4,15.6,7.1,15.5,15.7c-0.1,8.6-6.4,15.7-15.5,15.6c-8.7,0-15.2-6.9-15.3-15.9
			C183.1,21.4,190.1,14.2,198.4,14.7z M198.6,20c-6-0.5-9.7,4.4-9.7,10.2c0.1,6.3,3.9,10.4,9.6,10.5c6,0.1,9.8-4.9,9.8-10.3
			C208.2,24.4,204.4,19.5,198.6,20z"/>
		<path class="st4" d="M56.7,20.5c0.8-1.7,1.5-3.1,2.1-4.5c0.1-0.2,0.4-0.7,0.5-0.7c2.1,0.1,1.6-1.5,1.8-2.7
			c0.8-5.9,5.8-10.4,12.2-11.2c3-0.4,2.9-0.4,3.1,2.7c0.1,1.9-0.5,2.5-2.4,2.6c-4.5,0.4-7.1,3.1-7.4,7c-0.1,1,0.2,1.4,1.2,1.3
			c1.6-0.1,3.2,0,4.8,0c0.9,0,1.1,0.3,1.1,1.1c0.2,4.2,0.2,4.2-4,4.2c-3.2,0-3.2,0-3.2,3.3c0,6.5,0,13.1,0,19.6c0,1.5-0.2,2.1-1.9,2
			c-3.9-0.1-3.9,0-3.9-4c0-6.3-0.1-12.6,0-18.9c0-1.6-0.4-2.3-2.1-2.1C58.2,20.6,57.6,20.5,56.7,20.5z"/>
		<path class="st1" d="M172.8,18.3c0,4.9,0,9.7,0,14.6c0,1.2,0.2,2.4,0.5,3.5c0.4,2,2.5,3.5,5,3.5c1.5,0,1.7,0.6,1.7,1.9
			c0,3.6,0,3.5-3.6,3.2c-5.9-0.5-8.6-3.9-9-9.6c-0.6-10.9-0.1-21.7-0.3-32.6c0-1.2,0.4-1.7,1.6-1.7c4-0.1,4.1,0,4.1,3.9
			C172.8,9.4,172.8,13.9,172.8,18.3z"/>
		<path class="st6" d="M114.4,34.6c0.1-2.9-0.2-6.4,0.2-10c0.7-5.9,3.5-8.9,9.5-9.4c2.6-0.2,5.2-0.1,7.9-0.2c0.9,0,1.1,0.3,1.1,1.1
			c0.2,4.2,0.3,4.2-3.9,4.2c-1.6,0-3.2,0-4.8,0.1c-2.4,0.2-3.6,1.4-4.1,3.8c-0.3,1.5-0.3,3-0.3,4.4c0,5,0,10,0,15
			c0,1.1-0.2,1.5-1.5,1.5c-4.2,0-4.2,0.1-4.2-4.2C114.4,39.2,114.4,37.2,114.4,34.6z"/>
		<path class="st7" d="M39.5,40.3c0.2,0.2,0.1,0.4-0.2,0.4C39.3,40.6,39.4,40.5,39.5,40.3z"/>
		<path class="st7" d="M39.5,6.5c-0.1-0.1-0.1-0.3-0.2-0.4C39.6,6.1,39.7,6.3,39.5,6.5z"/>
	</g>
</g>
</svg>
