<?xml version="1.0" encoding="utf-8"?>
<!-- Generator: Adobe Illustrator 19.2.1, SVG Export Plug-In . SVG Version: 6.00 Build 0)  -->
<svg version="1.1" id="Слой_1" xmlns="http://www.w3.org/2000/svg" xmlns:xlink="http://www.w3.org/1999/xlink" x="0px" y="0px"
	 viewBox="0 0 71.2 71.2" style="enable-background:new 0 0 71.2 71.2;" xml:space="preserve">
<style type="text/css">
	.st0{fill:none;stroke:url(#SVGID_1_);stroke-width:3;stroke-miterlimit:10;}
	.st1{fill:url(#SVGID_2_);}
</style>
<linearGradient id="SVGID_1_" gradientUnits="userSpaceOnUse" x1="0" y1="35.6236" x2="71.2472" y2="35.6236">
	<stop  offset="0" style="stop-color:#F29222"/>
	<stop  offset="1" style="stop-color:#F26522"/>
</linearGradient>
<polygon class="st0" points="35.6,1.6 59.7,11.6 69.6,35.6 59.7,59.7 35.6,69.6 11.6,59.7 1.6,35.6 11.6,11.6 "/>
<g>
	<linearGradient id="SVGID_2_" gradientUnits="userSpaceOnUse" x1="22.0034" y1="35.6236" x2="49.2438" y2="35.6236">
		<stop  offset="0" style="stop-color:#F29222"/>
		<stop  offset="1" style="stop-color:#F26522"/>
	</linearGradient>
	<path class="st1" d="M35.3,44.7L28,48.5c-0.5,0.3-1.1-0.2-1-0.7l1.4-8.2c0-0.2,0-0.5-0.2-0.6l-5.9-5.8c-0.4-0.4-0.2-1.1,0.4-1.2
		l8.2-1.2c0.2,0,0.4-0.2,0.5-0.4L35,23c0.3-0.5,1-0.5,1.2,0l3.7,7.4c0.1,0.2,0.3,0.3,0.5,0.4l8.2,1.2c0.6,0.1,0.8,0.8,0.4,1.2
		L43.1,39c-0.2,0.2-0.2,0.4-0.2,0.6l1.4,8.2c0.1,0.6-0.5,1-1,0.7l-7.3-3.9C35.7,44.6,35.5,44.6,35.3,44.7"/>
</g>
</svg>
