<?xml version="1.0" encoding="utf-8"?>
<!-- Generator: Adobe Illustrator 19.2.1, SVG Export Plug-In . SVG Version: 6.00 Build 0)  -->
<svg version="1.1" id="Слой_1" xmlns="http://www.w3.org/2000/svg" xmlns:xlink="http://www.w3.org/1999/xlink" x="0px" y="0px"
	 viewBox="0 0 144.9 42" style="enable-background:new 0 0 144.9 42;" xml:space="preserve">
<style type="text/css">
	.st0{fill:#FF8D00;}
	.st1{fill:#FFFFFF;}
</style>
<g>
	<g>
		<path class="st0" d="M24.5,35.2l-7.8-4.5c-0.8-0.5-1.8,0.1-1.8,1.1v9c0,0.9,1,1.5,1.8,1.1l7.8-4.5C25.3,36.9,25.3,35.7,24.5,35.2z
			 M23.2,36.4l-6.7,3.9c-0.1,0.1-0.2,0-0.2-0.1v-7.7c0-0.1,0.1-0.2,0.2-0.1l6.7,3.9C23.3,36.2,23.3,36.4,23.2,36.4z"/>
		<path class="st0" d="M31.4,33.4C31,33,30.6,32.5,30.1,32c-0.5-0.5-1.1-1.2-1.7-1.8c-0.3-0.3-0.6-0.7-1-1c-0.3-0.4-0.7-0.7-1.1-1.1
			c-0.7-0.8-1.5-1.5-2.3-2.4c-0.4-0.4-0.8-0.8-1.2-1.2c-0.4-0.4-0.8-0.8-1.2-1.3c-0.7-0.8-1.5-1.5-2.2-2.3c0.8-0.8,1.5-1.5,2.2-2.3
			c0.4-0.4,0.8-0.8,1.2-1.3c0.4-0.4,0.8-0.8,1.2-1.2c0.8-0.8,1.6-1.6,2.3-2.4c0.4-0.4,0.7-0.7,1.1-1.1c0.3-0.4,0.7-0.7,1-1
			c0.6-0.7,1.2-1.3,1.7-1.8c0.5-0.5,0.9-1,1.3-1.4c0.4-0.4,0.6-0.7,0.8-0.9c0.2-0.2,0.3-0.3,0.3-0.3s-0.1,0.1-0.3,0.3
			C32,7.7,31.6,8,31.2,8.3c-0.4,0.4-0.9,0.8-1.4,1.3c-0.5,0.5-1.2,1.1-1.8,1.7c-0.3,0.3-0.7,0.6-1,1c-0.4,0.3-0.7,0.7-1.1,1.1
			c-0.8,0.7-1.5,1.5-2.4,2.3c-0.4,0.4-0.8,0.8-1.2,1.2c-0.4,0.4-0.8,0.8-1.3,1.2c-0.8,0.7-1.5,1.5-2.3,2.2c-0.8-0.8-1.5-1.5-2.3-2.2
			c-0.4-0.4-0.8-0.8-1.3-1.2c-0.4-0.4-0.8-0.8-1.2-1.2c-0.8-0.8-1.6-1.6-2.4-2.3c-0.4-0.4-0.7-0.7-1.1-1.1c-0.4-0.3-0.7-0.7-1-1
			c-0.7-0.6-1.3-1.2-1.8-1.7c-0.5-0.5-1-0.9-1.4-1.3C5.9,8,5.6,7.7,5.4,7.5C5.1,7.3,5,7.2,5,7.2s0.1,0.1,0.3,0.3
			c0.2,0.2,0.5,0.5,0.8,0.9c0.4,0.4,0.8,0.9,1.3,1.4C8,10.4,8.5,11,9.2,11.7c0.3,0.3,0.6,0.7,1,1c0.3,0.4,0.7,0.7,1.1,1.1
			c0.7,0.8,1.5,1.5,2.3,2.4c0.4,0.4,0.8,0.8,1.2,1.2c0.4,0.4,0.8,0.8,1.2,1.3c0.7,0.8,1.5,1.5,2.2,2.3c-0.8,0.8-1.5,1.5-2.2,2.3
			c-0.4,0.4-0.8,0.8-1.2,1.3c-0.4,0.4-0.8,0.8-1.2,1.2c-0.8,0.8-1.6,1.6-2.3,2.4c-0.4,0.4-0.7,0.7-1.1,1.1c-0.3,0.4-0.7,0.7-1,1
			C8.5,30.8,8,31.5,7.5,32c-0.5,0.5-0.9,1-1.3,1.4c-0.4,0.4-0.6,0.7-0.8,0.9C5.1,34.5,5,34.7,5,34.7s0.1-0.1,0.3-0.3
			c0.2-0.2,0.5-0.5,0.9-0.8c0.4-0.4,0.9-0.8,1.4-1.3c0.5-0.5,1.2-1.1,1.8-1.7c0.3-0.3,0.7-0.6,1-1c0.4-0.3,0.7-0.7,1.1-1.1
			c0.8-0.7,1.5-1.5,2.4-2.3c0.4-0.4,0.8-0.8,1.2-1.2c0.4-0.4,0.8-0.8,1.3-1.2c0.8-0.7,1.5-1.5,2.3-2.2c0.8,0.8,1.5,1.5,2.3,2.2
			c0.4,0.4,0.8,0.8,1.3,1.2c0.4,0.4,0.8,0.8,1.2,1.2c0.8,0.8,1.6,1.6,2.4,2.3c0.4,0.4,0.7,0.7,1.1,1.1c0.4,0.3,0.7,0.7,1,1
			c0.7,0.6,1.3,1.2,1.8,1.7c0.5,0.5,1,0.9,1.4,1.3c0.4,0.4,0.7,0.6,0.9,0.8c0.2,0.2,0.3,0.3,0.3,0.3s-0.1-0.1-0.3-0.3
			C32,34.1,31.7,33.8,31.4,33.4z"/>
		<g>
			<path class="st1" d="M7.2,15.5v1.4H1.4v3.3h5.8v1.4H1.4V25h5.8v1.4H0l0,0V15.5H7.2z"/>
		</g>
		<g>
			<path class="st1" d="M33.8,15.5c1.5,0,2.8,0.5,3.8,1.6c1.1,1.1,1.6,2.3,1.6,3.8c0,1.5-0.5,2.8-1.6,3.8c-1.1,1.1-2.3,1.6-3.8,1.6
				c-1.5,0-2.8-0.5-3.8-1.6c-1.1-1.1-1.6-2.3-1.6-3.8c0-1.5,0.5-2.8,1.6-3.8C31,16.1,32.3,15.5,33.8,15.5z M33.8,25
				c1.1,0,2.1-0.4,2.8-1.2c0.8-0.8,1.2-1.7,1.2-2.8c0-1.1-0.4-2.1-1.2-2.8c-0.8-0.8-1.7-1.2-2.8-1.2c-1.1,0-2.1,0.4-2.8,1.2
				c-0.8,0.8-1.2,1.7-1.2,2.8c0,1.1,0.4,2.1,1.2,2.8C31.7,24.6,32.7,25,33.8,25z"/>
		</g>
		<g>
			<path class="st1" d="M22.4,9.4v1.4h-7.3V0h1.4v9.4H22.4z"/>
		</g>
	</g>
	<g>
		<path class="st1" d="M55.7,20.4h8.6v1h-8.6v5.8h9.3v1.1H54.5V13.6h10.1v1.1h-9V20.4z"/>
		<path class="st1" d="M68.6,13.6v13.6h8.3v1.1h-9.4V13.6H68.6z"/>
		<path class="st1" d="M92.2,20.9c0,3.9-2.5,7.6-7.4,7.6s-7.4-3.7-7.4-7.6c0-3.9,2.5-7.6,7.4-7.6C89.7,13.3,92.2,17,92.2,20.9z
			 M78.5,20.9c0,3.3,2.1,6.5,6.3,6.5c4.2,0,6.3-3.2,6.3-6.5c0-3.4-2.1-6.5-6.3-6.5S78.4,17.5,78.5,20.9z"/>
		<path class="st0" d="M96,23.2v5.1h-1.1V13.6c2.1,0,4.3,0,6.4,0c6.4,0,6.4,9.6,0,9.6H96z M96,14.6v7.5h5.3c4.9,0,4.9-7.5,0-7.5H96z
			"/>
		<path class="st0" d="M109.7,13.6v13.6h8.3v1.1h-9.4V13.6H109.7z"/>
		<path class="st0" d="M132.9,28.3l-1.6-3.6h-8.8l-1.6,3.6h-1.2l6.6-14.7h1.2l6.6,14.7H132.9z M130.8,23.6l-3.9-8.9l-3.9,8.9H130.8z
			"/>
		<path class="st0" d="M138,22.4l-5.7-8.8v0h1.3l5,7.7l5-7.7h1.3v0l-5.7,8.8v5.9H138V22.4z"/>
	</g>
</g>
</svg>
