<?xml version="1.0" encoding="utf-8"?>
<!-- Generator: Adobe Illustrator 19.2.1, SVG Export Plug-In . SVG Version: 6.00 Build 0)  -->
<svg version="1.1" id="Слой_1" xmlns="http://www.w3.org/2000/svg" xmlns:xlink="http://www.w3.org/1999/xlink" x="0px" y="0px"
	 viewBox="0 0 161 161" style="enable-background:new 0 0 161 161;" xml:space="preserve">
<style type="text/css">
	.st0{fill:url(#SVGID_1_);}
	.st1{opacity:0.5;}
	.st2{opacity:0.1;fill:#FFFFFF;}
</style>
<g>
	<g>
		<linearGradient id="SVGID_1_" gradientUnits="userSpaceOnUse" x1="0.5067" y1="80.5001" x2="161.0983" y2="80.5001">
			<stop  offset="0" style="stop-color:#8C2A78"/>
			<stop  offset="0.146" style="stop-color:#943170"/>
			<stop  offset="0.3719" style="stop-color:#A8425A"/>
			<stop  offset="0.6494" style="stop-color:#CA6037"/>
			<stop  offset="0.9652" style="stop-color:#F98806"/>
			<stop  offset="1" style="stop-color:#FF8D00"/>
		</linearGradient>
		<polygon class="st0" points="47.5,160.8 0.5,113.8 0.5,47.2 47.5,0.2 114.1,0.2 161.1,47.2 161.1,113.8 114.1,160.8 		"/>
	</g>
</g>
<g class="st1">
	<polygon class="st2" points="161.1,47.2 114.1,0.2 127.8,33.5 	"/>
	<polygon class="st2" points="161.1,47.2 114.1,0.2 127.8,33.5 	"/>
	<polygon class="st2" points="161.1,47.2 114.1,0.2 127.8,33.5 	"/>
	<polygon class="st2" points="161.1,47.2 114.1,0.2 127.8,33.5 	"/>
	<polygon class="st2" points="161.1,47.2 114.1,0.2 127.8,33.5 	"/>
	<polygon class="st2" points="161.1,47.2 114.1,0.2 127.8,33.5 	"/>
	<polygon class="st2" points="161.1,47.2 114.1,0.2 127.8,33.5 	"/>
	<polygon class="st2" points="161.1,47.2 114.1,0.2 127.8,33.5 	"/>
	<polygon class="st2" points="161.1,47.2 114.1,0.2 127.8,33.5 	"/>
	<polygon class="st2" points="161.1,47.2 114.1,0.2 127.8,33.5 	"/>
	<polygon class="st2" points="114.1,0.2 47.5,0.2 80.8,14 	"/>
	<polygon class="st2" points="114.1,0.2 47.5,0.2 80.8,14 	"/>
	<polygon class="st2" points="114.1,0.2 47.5,0.2 80.8,14 	"/>
	<polygon class="st2" points="114.1,0.2 47.5,0.2 80.8,14 	"/>
	<polygon class="st2" points="114.1,0.2 47.5,0.2 80.8,14 	"/>
	<polygon class="st2" points="114.1,0.2 47.5,0.2 80.8,14 	"/>
	<polygon class="st2" points="114.1,0.2 47.5,0.2 80.8,14 	"/>
	<polygon class="st2" points="114.1,0.2 47.5,0.2 80.8,14 	"/>
	<polygon class="st2" points="114.1,0.2 47.5,0.2 80.8,14 	"/>
	<polygon class="st2" points="127.8,33.5 114.1,0.2 80.8,14 	"/>
	<polygon class="st2" points="127.8,33.5 114.1,0.2 80.8,14 	"/>
	<polygon class="st2" points="127.8,33.5 114.1,0.2 80.8,14 	"/>
	<polygon class="st2" points="147.3,80.5 161.1,113.8 161.1,47.2 	"/>
	<polygon class="st2" points="147.3,80.5 161.1,113.8 161.1,47.2 	"/>
	<polygon class="st2" points="147.3,80.5 161.1,113.8 161.1,47.2 	"/>
	<polygon class="st2" points="147.3,80.5 161.1,113.8 161.1,47.2 	"/>
	<polygon class="st2" points="147.3,80.5 161.1,113.8 161.1,47.2 	"/>
	<polygon class="st2" points="147.3,80.5 161.1,113.8 161.1,47.2 	"/>
	<polygon class="st2" points="147.3,80.5 161.1,113.8 161.1,47.2 	"/>
	<polygon class="st2" points="147.3,80.5 161.1,113.8 161.1,47.2 	"/>
	<polygon class="st2" points="147.3,80.5 161.1,113.8 161.1,47.2 	"/>
	<polygon class="st2" points="147.3,80.5 161.1,113.8 161.1,47.2 	"/>
	<polygon class="st2" points="147.3,80.5 161.1,47.2 127.8,33.5 	"/>
	<polygon class="st2" points="147.3,80.5 161.1,47.2 127.8,33.5 	"/>
	<polygon class="st2" points="147.3,80.5 161.1,47.2 127.8,33.5 	"/>
	<polygon class="st2" points="114.1,160.8 161.1,113.8 127.8,127.5 	"/>
	<polygon class="st2" points="114.1,160.8 161.1,113.8 127.8,127.5 	"/>
	<polygon class="st2" points="114.1,160.8 161.1,113.8 127.8,127.5 	"/>
	<polygon class="st2" points="114.1,160.8 161.1,113.8 127.8,127.5 	"/>
	<polygon class="st2" points="114.1,160.8 161.1,113.8 127.8,127.5 	"/>
	<polygon class="st2" points="114.1,160.8 161.1,113.8 127.8,127.5 	"/>
	<polygon class="st2" points="114.1,160.8 161.1,113.8 127.8,127.5 	"/>
	<polygon class="st2" points="114.1,160.8 161.1,113.8 127.8,127.5 	"/>
	<polygon class="st2" points="114.1,160.8 161.1,113.8 127.8,127.5 	"/>
	<polygon class="st2" points="114.1,160.8 161.1,113.8 127.8,127.5 	"/>
	<polygon class="st2" points="127.8,127.5 161.1,113.8 147.3,80.5 	"/>
	<polygon class="st2" points="127.8,127.5 161.1,113.8 147.3,80.5 	"/>
	<polygon class="st2" points="127.8,127.5 161.1,113.8 147.3,80.5 	"/>
	<polygon class="st2" points="47.5,160.8 114.1,160.8 80.8,147 	"/>
	<polygon class="st2" points="47.5,160.8 114.1,160.8 80.8,147 	"/>
	<polygon class="st2" points="47.5,160.8 114.1,160.8 80.8,147 	"/>
	<polygon class="st2" points="47.5,160.8 114.1,160.8 80.8,147 	"/>
	<polygon class="st2" points="47.5,160.8 114.1,160.8 80.8,147 	"/>
	<polygon class="st2" points="47.5,160.8 114.1,160.8 80.8,147 	"/>
	<polygon class="st2" points="47.5,160.8 114.1,160.8 80.8,147 	"/>
	<polygon class="st2" points="47.5,160.8 114.1,160.8 80.8,147 	"/>
	<polygon class="st2" points="47.5,160.8 114.1,160.8 80.8,147 	"/>
	<polygon class="st2" points="80.8,147 114.1,160.8 127.8,127.5 	"/>
	<polygon class="st2" points="80.8,147 114.1,160.8 127.8,127.5 	"/>
	<polygon class="st2" points="80.8,147 114.1,160.8 127.8,127.5 	"/>
	<polygon class="st2" points="0.5,113.8 47.5,160.8 33.8,127.5 	"/>
	<polygon class="st2" points="0.5,113.8 47.5,160.8 33.8,127.5 	"/>
	<polygon class="st2" points="0.5,113.8 47.5,160.8 33.8,127.5 	"/>
	<polygon class="st2" points="0.5,113.8 47.5,160.8 33.8,127.5 	"/>
	<polygon class="st2" points="0.5,113.8 47.5,160.8 33.8,127.5 	"/>
	<polygon class="st2" points="0.5,113.8 47.5,160.8 33.8,127.5 	"/>
	<polygon class="st2" points="0.5,113.8 47.5,160.8 33.8,127.5 	"/>
	<polygon class="st2" points="0.5,113.8 47.5,160.8 33.8,127.5 	"/>
	<polygon class="st2" points="33.8,127.5 47.5,160.8 80.8,147 	"/>
	<polygon class="st2" points="33.8,127.5 47.5,160.8 80.8,147 	"/>
	<polygon class="st2" points="0.5,47.2 0.5,113.8 14.3,80.5 	"/>
	<polygon class="st2" points="0.5,47.2 0.5,113.8 14.3,80.5 	"/>
	<polygon class="st2" points="0.5,47.2 0.5,113.8 14.3,80.5 	"/>
	<polygon class="st2" points="0.5,47.2 0.5,113.8 14.3,80.5 	"/>
	<polygon class="st2" points="0.5,47.2 0.5,113.8 14.3,80.5 	"/>
	<polygon class="st2" points="0.5,47.2 0.5,113.8 14.3,80.5 	"/>
	<polygon class="st2" points="0.5,47.2 0.5,113.8 14.3,80.5 	"/>
	<polygon class="st2" points="0.5,47.2 0.5,113.8 14.3,80.5 	"/>
	<polygon class="st2" points="14.3,80.5 0.5,113.8 33.8,127.5 	"/>
	<polygon class="st2" points="14.3,80.5 0.5,113.8 33.8,127.5 	"/>
	<polygon class="st2" points="47.5,0.2 0.5,47.2 33.8,33.5 	"/>
	<polygon class="st2" points="47.5,0.2 0.5,47.2 33.8,33.5 	"/>
	<polygon class="st2" points="47.5,0.2 0.5,47.2 33.8,33.5 	"/>
	<polygon class="st2" points="47.5,0.2 0.5,47.2 33.8,33.5 	"/>
	<polygon class="st2" points="47.5,0.2 0.5,47.2 33.8,33.5 	"/>
	<polygon class="st2" points="47.5,0.2 0.5,47.2 33.8,33.5 	"/>
	<polygon class="st2" points="47.5,0.2 0.5,47.2 33.8,33.5 	"/>
	<polygon class="st2" points="47.5,0.2 0.5,47.2 33.8,33.5 	"/>
	<polygon class="st2" points="33.8,33.5 0.5,47.2 14.3,80.5 	"/>
	<polygon class="st2" points="33.8,33.5 0.5,47.2 14.3,80.5 	"/>
	<polygon class="st2" points="80.8,14 47.5,0.2 33.8,33.5 	"/>
	<polygon class="st2" points="80.8,14 47.5,0.2 33.8,33.5 	"/>
</g>
</svg>
