<?xml version="1.0" encoding="utf-8"?>
<!-- Generator: Adobe Illustrator 19.2.0, SVG Export Plug-In . SVG Version: 6.00 Build 0)  -->
<svg version="1.1" id="Layer_1" xmlns="http://www.w3.org/2000/svg" xmlns:xlink="http://www.w3.org/1999/xlink" x="0px" y="0px"
	 viewBox="0 0 213 150" style="enable-background:new 0 0 213 150;" xml:space="preserve">
<style type="text/css">
	.st0{fill:#FFFFFF;}
</style>
<g>
	<g>
		<path class="st0" d="M52.4,82.1c-1.7-0.1-3.4,0.1-5.1-0.3c-2.3-0.6-4.2-1.7-6.1-3.1c-1.4-1-2.8-2.1-4.3-3.1
			c-1.7-1.2-3.7-1.8-5.8-1.7c-1.3,0-2.7,0-4.1,0c0-0.1,0-0.2,0-0.2c0.4-1.6,0.4-3.2,0-4.8c0-0.1,0-0.2,0-0.2c1.1,0,2.1-0.1,3.2,0
			c3.7,0.4,6.6-1.3,9.3-3.6c3.7-3.1,7.8-5.1,12.8-4.6c0.1-0.2,0-0.2-0.1-0.3c-0.7-0.7-1.3-1.4-2.1-2.1c-0.6-0.5-0.8-1.1-0.5-1.8
			c0.2,0,0.3,0,0.5,0c1.3,0.4,2.6,0.4,3.9,0c0.1,0,0.2,0,0.2,0c2.3,1.6,4.1,3.8,6.1,5.8c0.8,0.8,0.8,1.5,0,2.3
			c-1.6,1.6-3.2,3.2-4.8,4.8C55,69.7,54.3,70,53.4,70c-1,0-1.9,0-2.9,0c-0.4,0-0.9,0-1.1-0.5c-0.2-0.5,0.2-0.8,0.5-1.1
			c0.8-0.8,1.6-1.5,2.5-2.4c-2.3-0.3-4.4-0.1-6.3,1.1c-1.9,1.1-3.7,2.6-5.5,3.9c-0.4,0.3-0.4,0.5,0,0.7c1.8,1.2,3.5,2.4,5.2,3.6
			c1.9,1.3,4.1,1.6,6.7,1.3c-1-0.9-1.8-1.7-2.6-2.5c-0.3-0.3-0.6-0.5-0.4-1c0.2-0.4,0.6-0.5,1-0.5c1,0,2.1,0,3.1,0
			c0.8,0,1.5,0.3,2,0.9c1.6,1.6,3.1,3.1,4.7,4.7c0.8,0.9,0.9,1.5,0,2.4c-1.6,1.6-3.1,3.1-4.7,4.7c-0.6,0.6-1.3,0.9-2.1,0.9
			c-1.1,0-2.1,0-3.2-0.1c-0.3,0-0.6-0.1-0.8-0.4c-0.2-0.4,0-0.7,0.3-0.9c0.8-0.8,1.6-1.6,2.4-2.4C52.4,82.3,52.5,82.3,52.4,82.1z"/>
		<path class="st0" d="M171.5,94.7c0-0.8,0-1.5,0-2.3c-0.1-0.9,0.2-1.2,1.1-1.2c2.2,0.1,4.4,0,6.6-0.4c2.4-0.5,4.2-2.7,4.2-5.2
			c0-5.1,0-10.2,0-15.3c0-0.5,0-1-0.7-1c-2.2,0.1-4.3-0.1-6.5,0.2c-3.6,0.5-5.3,4.4-4.8,7.6c0.8,4.6,5.8,6,9.7,3.9
			c0.9-0.5,1-0.3,1,0.6c0,2.7-0.8,3.5-3.9,3.8c-4.6,0.3-9-2.3-10.1-7.1c-1.3-5.5,1.6-10.5,7.3-12c0.4-0.1,0.8-0.1,1.3-0.1
			c3.5,0,7,0,10.5,0c0,6.6,0,13.3,0,19.9c-0.1,0.1-0.2,0.2-0.2,0.3c-0.5,4.1-3,6.4-6.7,7.7c-0.9,0.3-1.9,0.3-2.7,0.7
			C175.5,94.7,173.5,94.7,171.5,94.7z"/>
		<path class="st0" d="M27.1,68.9c0.4,1.6,0.4,3.2,0,4.8C27.1,72.1,27.1,70.5,27.1,68.9z"/>
		<path class="st0" d="M54.1,56.3c-1.3,0.4-2.6,0.4-3.9,0C51.5,56.3,52.8,56.3,54.1,56.3z"/>
		<path class="st0" d="M129.8,66c-1.5,2.6-2.9,5-4.3,7.4c-0.4,0.7-0.4,1,0.4,1.3c2.3,0.9,3.4,2.8,3.8,5.2c0.3,1.6,0.2,3.2,0.2,4.8
			c0,0.5-0.2,0.7-0.7,0.7c-0.1,0-0.2,0-0.2,0c-2.7,0.1-2.8,0.1-2.7-2.6c0.1-5.1-3.7-6.4-7.4-5.9c-0.7,0.1-0.7,0.4-0.7,0.9
			c0,2.2,0,4.4,0,6.6c0,0.8-0.2,1-1,1c-2.5,0-2.5,0-2.5-2.5c0-8.2,0-16.4,0-24.7c0-0.9,0.2-1.2,1.1-1.2c2.4,0,2.4,0,2.4,2.4
			c0,4.3,0,8.7,0,13c0,0.8,0.1,1,1.1,1.2c2.1,0.4,2.9-0.8,3.7-2.4c0.7-1.6,1.6-3,2.4-4.5c0.3-0.5,0.6-0.8,1.3-0.7
			C127.7,66,128.6,66,129.8,66z"/>
		<path class="st0" d="M96.6,75.7c0,5.7-4.3,10.1-9.9,10c-5.5,0-9.8-4.5-9.8-10.2c0-5.6,4.3-10,9.9-10
			C92.3,65.6,96.6,70.1,96.6,75.7z M93,75.8c0-3.4-1.8-6-4.6-6.6c-3.2-0.7-5.9,0.6-7.2,3.3c-1.4,3-0.5,6.9,1.9,8.7
			c0.6,0.4,1.2,0.7,1.9,0.9C89.4,83.2,93,80.4,93,75.8z"/>
		<path class="st0" d="M154.1,65.7c5.5-0.3,10,4.5,9.9,10.1c-0.1,5.5-4.1,10.1-9.9,10c-5.6,0-9.8-4.4-9.8-10.1
			C144.3,69.9,148.8,65.4,154.1,65.7z M154.2,69.1c-3.8-0.3-6.2,2.8-6.2,6.5c0,4,2.5,6.7,6.1,6.7c3.9,0,6.3-3.1,6.3-6.6
			C160.4,71.9,157.9,68.8,154.2,69.1z"/>
		<path class="st0" d="M63.4,69.4c0.5-1.1,0.9-2,1.4-2.9c0.1-0.2,0.2-0.4,0.3-0.4c1.3,0,1.1-0.9,1.2-1.7c0.5-3.7,3.7-6.7,7.8-7.2
			C76,57,75.9,57,76,59c0.1,1.2-0.3,1.6-1.5,1.7c-2.9,0.2-4.6,2-4.7,4.5c0,0.7,0.2,0.9,0.8,0.8c1,0,2.1,0,3.1,0
			c0.5,0,0.7,0.2,0.7,0.7c0.1,2.7,0.1,2.7-2.5,2.7c-2.1,0-2.1,0-2.1,2.1c0,4.2,0,8.4,0,12.6c0,1-0.2,1.3-1.2,1.3
			c-2.5-0.1-2.5,0-2.5-2.5c0-4,0-8.1,0-12.1c0-1.1-0.3-1.5-1.3-1.3C64.4,69.4,64,69.4,63.4,69.4z"/>
		<path class="st0" d="M137.7,68c0,3.1,0,6.2,0,9.4c0,0.8,0.1,1.5,0.3,2.2c0.3,1.3,1.6,2.3,3.2,2.2c1,0,1.1,0.4,1.1,1.2
			c0,2.3,0,2.3-2.3,2.1c-3.7-0.3-5.5-2.5-5.8-6.2c-0.4-6.9,0-13.9-0.2-20.9c0-0.8,0.2-1.1,1.1-1.1c2.5-0.1,2.6,0,2.6,2.5
			C137.7,62.3,137.7,65.1,137.7,68z"/>
		<path class="st0" d="M100.3,78.4c0.1-1.9-0.1-4.1,0.1-6.4c0.4-3.8,2.3-5.7,6.1-6c1.7-0.1,3.3-0.1,5-0.1c0.5,0,0.7,0.2,0.7,0.7
			c0.2,2.7,0.2,2.7-2.5,2.7c-1,0-2.1,0-3.1,0.1c-1.5,0.2-2.3,0.9-2.6,2.4c-0.2,0.9-0.2,1.9-0.2,2.8c0,3.2,0,6.4,0,9.6
			c0,0.7-0.2,1-0.9,1c-2.7,0-2.7,0-2.7-2.7C100.3,81.4,100.3,80.1,100.3,78.4z"/>
		<path class="st0" d="M52.4,82.1c0.1,0.2,0,0.2-0.1,0.3C52.3,82.3,52.3,82.2,52.4,82.1z"/>
		<path class="st0" d="M52.4,60.4c0-0.1-0.1-0.2-0.1-0.3C52.4,60.2,52.5,60.3,52.4,60.4z"/>
	</g>
</g>
</svg>
