<?xml version="1.0" encoding="utf-8"?>
<!-- Generator: Adobe Illustrator 19.2.1, SVG Export Plug-In . SVG Version: 6.00 Build 0)  -->
<svg version="1.1" id="Слой_1" xmlns="http://www.w3.org/2000/svg" xmlns:xlink="http://www.w3.org/1999/xlink" x="0px" y="0px"
	 viewBox="0 0 139.2 139.2" style="enable-background:new 0 0 139.2 139.2;" xml:space="preserve">
<style type="text/css">
	.st0{fill:none;stroke:url(#SVGID_1_);stroke-width:3;stroke-miterlimit:10;}
	.st1{fill:none;stroke:url(#SVGID_2_);stroke-width:3;stroke-miterlimit:10;}
	.st2{fill:url(#SVGID_3_);}
</style>
<linearGradient id="SVGID_1_" gradientUnits="userSpaceOnUse" x1="0" y1="69.6236" x2="139.2472" y2="69.6236">
	<stop  offset="0" style="stop-color:#F29222"/>
	<stop  offset="1" style="stop-color:#F26522"/>
</linearGradient>
<polygon class="st0" points="69.6,1.6 117.7,21.5 137.6,69.6 117.7,117.7 69.6,137.6 21.5,117.7 1.6,69.6 21.5,21.5 "/>
<linearGradient id="SVGID_2_" gradientUnits="userSpaceOnUse" x1="23.5" y1="69.6236" x2="115.7472" y2="69.6236">
	<stop  offset="0" style="stop-color:#F29222"/>
	<stop  offset="1" style="stop-color:#F26522"/>
</linearGradient>
<polygon class="st1" points="69.6,25.1 101.1,38.2 114.1,69.6 101.1,101.1 69.6,114.1 38.2,101.1 25.1,69.6 38.2,38.2 "/>
<g>
	<linearGradient id="SVGID_3_" gradientUnits="userSpaceOnUse" x1="51.7971" y1="69.6236" x2="87.45" y2="69.6236">
		<stop  offset="0" style="stop-color:#F29222"/>
		<stop  offset="1" style="stop-color:#F26522"/>
	</linearGradient>
	<path class="st2" d="M69.2,81.5l-9.6,5.1c-0.7,0.3-1.4-0.2-1.3-1l1.8-10.7c0-0.3,0-0.6-0.3-0.8l-7.8-7.6c-0.5-0.5-0.2-1.4,0.5-1.5
		l10.7-1.6c0.3,0,0.5-0.2,0.7-0.5l4.8-9.7c0.3-0.7,1.3-0.7,1.6,0l4.8,9.7c0.1,0.3,0.4,0.5,0.7,0.5l10.8,1.6c0.7,0.1,1,1,0.5,1.5
		l-7.8,7.6c-0.2,0.2-0.3,0.5-0.3,0.8L81,85.6c0.1,0.7-0.7,1.3-1.3,1L70,81.5C69.8,81.3,69.5,81.3,69.2,81.5"/>
</g>
</svg>
