<?xml version="1.0" encoding="utf-8"?>
<!-- Generator: Adobe Illustrator 19.2.1, SVG Export Plug-In . SVG Version: 6.00 Build 0)  -->
<svg version="1.1" id="Слой_1" xmlns="http://www.w3.org/2000/svg" xmlns:xlink="http://www.w3.org/1999/xlink" x="0px" y="0px"
	 viewBox="0 0 30 28.7" style="enable-background:new 0 0 30 28.7;" xml:space="preserve">
<style type="text/css">
	.st0{fill:#FFFFFF;}
</style>
<g>
	<path id="LinkedIn" class="st0" d="M30,17.6v11.1h-6.4V18.3c0-2.6-0.9-4.4-3.3-4.4c-1.8,0-2.8,1.2-3.3,2.4c-0.2,0.4-0.2,1-0.2,1.6
		v10.8h-6.4c0,0,0.1-17.5,0-19.3h6.4v2.7c0,0,0,0,0,0.1h0v-0.1c0.9-1.3,2.4-3.2,5.8-3.2C26.8,8.9,30,11.6,30,17.6z M3.6,0
		C1.4,0,0,1.4,0,3.3c0,1.9,1.4,3.3,3.6,3.3h0c2.2,0,3.6-1.5,3.6-3.3C7.2,1.4,5.8,0,3.6,0z M0.4,28.7h6.4V9.3H0.4V28.7z"/>
</g>
</svg>
