<?xml version="1.0" encoding="utf-8"?>
<!-- Generator: Adobe Illustrator 19.2.1, SVG Export Plug-In . SVG Version: 6.00 Build 0)  -->
<svg version="1.1" id="Слой_1" xmlns="http://www.w3.org/2000/svg" xmlns:xlink="http://www.w3.org/1999/xlink" x="0px" y="0px"
	 viewBox="0 0 97.2 68" style="enable-background:new 0 0 97.2 68;" xml:space="preserve">
<style type="text/css">
	.st0{fill-rule:evenodd;clip-rule:evenodd;fill:#233D90;}
	.st1{fill-rule:evenodd;clip-rule:evenodd;fill:#FFCD00;}
	.st2{fill-rule:evenodd;clip-rule:evenodd;fill:#FFCD00;stroke:#FFCD00;stroke-width:0.2268;stroke-miterlimit:10;}
</style>
<g>
	<path class="st0" d="M3.8,0l89.5,0c2.1,0,3.8,1.7,3.8,3.8v60.4c0,2.1-1.7,3.8-3.8,3.8H3.8C1.7,68,0,66.3,0,64.2L0,3.8
		C0,1.7,1.7,0,3.8,0z"/>
	<polygon class="st1" points="48.5,57.6 47.8,55.4 45.5,55.4 47.3,54.1 46.6,51.9 48.5,53.2 50.3,51.9 49.6,54.1 51.4,55.4 
		49.1,55.4 	"/>
	<polygon class="st1" points="59,54.8 58.4,52.6 56.1,52.6 57.9,51.3 57.2,49.1 59,50.4 60.9,49.1 60.2,51.3 62,52.6 59.8,52.6 	"/>
	<polygon class="st1" points="66.8,47 66.1,44.9 63.8,44.9 65.7,43.5 65,41.4 66.8,42.7 68.6,41.4 68,43.5 69.8,44.9 67.5,44.9 	"/>
	<polygon class="st1" points="37.9,54.7 37.1,52.6 34.9,52.6 36.7,51.2 36,49.1 37.9,50.4 39.7,49.1 39,51.2 40.8,52.6 38.6,52.6 	
		"/>
	<polygon class="st1" points="27.4,45 29.3,43.7 28.6,41.5 30.4,42.9 32.2,41.5 31.6,43.7 33.4,45 31.1,45 30.4,47.2 29.7,45 	"/>
	<polygon class="st1" points="24.5,34.4 26.4,33 25.7,30.9 27.5,32.2 29.4,30.9 28.6,33 30.5,34.4 28.2,34.4 27.5,36.5 26.8,34.4 	
		"/>
	<polygon class="st1" points="28.4,20.7 30.3,22 32.1,20.7 31.4,22.8 33.2,24.2 31,24.2 30.3,26.3 29.5,24.2 27.3,24.2 29.1,22.8 	
		"/>
	<polygon class="st1" points="50.1,10 49.4,12.2 51.3,13.5 49,13.5 48.3,15.7 47.6,13.5 45.3,13.5 47.1,12.2 46.4,10 48.3,11.3 	"/>
	<polygon class="st2" points="60.7,12.8 60,15 61.9,16.3 59.6,16.3 58.9,18.5 58.2,16.3 55.9,16.3 57.8,15 57,12.8 58.9,14.2 	"/>
	<polygon class="st1" points="36.2,12.9 38,14.2 39.9,12.9 39.1,15.1 41,16.4 38.7,16.4 38,18.5 37.3,16.4 35,16.4 36.9,15 	"/>
	<polygon class="st1" points="72.4,34.3 70.1,34.3 69.4,36.5 68.7,34.3 66.4,34.4 68.3,33 67.5,30.9 69.4,32.2 71.2,30.8 70.5,33 	
		"/>
	<polygon class="st1" points="68.5,20.7 67.8,22.8 69.6,24.2 67.4,24.2 66.6,26.3 65.9,24.2 63.7,24.2 65.5,22.8 64.8,20.7 66.6,22 
			"/>
</g>
</svg>
