<?xml version="1.0" encoding="utf-8"?>
<!-- Generator: Adobe Illustrator 19.2.1, SVG Export Plug-In . SVG Version: 6.00 Build 0)  -->
<svg version="1.1" id="Слой_1" xmlns="http://www.w3.org/2000/svg" xmlns:xlink="http://www.w3.org/1999/xlink" x="0px" y="0px"
	 viewBox="0 0 23 23" style="enable-background:new 0 0 23 23;" xml:space="preserve">
<style type="text/css">
	.st0{opacity:0.5;fill:#FFFFFF;}
</style>
<path class="st0" d="M11.5,0C5.2,0,0,5.2,0,11.5S5.2,23,11.5,23S23,17.9,23,11.5S17.9,0,11.5,0z M2.4,16.5c-0.7-1.3-1.2-2.8-1.2-4.4
	c0.6,0.6,1.5,1.7,1.5,2.5C2.7,15.2,2.3,15.7,2.4,16.5z M11.5,21.9c-0.1,0-0.2,0-0.3,0c-0.3-0.6-0.7-1.5-0.9-2.5
	c-0.3-1.8,0.3-2.5-1.3-3.5S6.8,15.2,5.9,15c-0.9-0.3-1.1-3,0-3.4C7,11.1,6.6,9.1,8.6,8.4s2-3,1.6-4.2C9.7,3,8.2,4,6.8,4.7
	C5.9,5.2,4.2,5.4,3.1,5.4c1.9-2.6,5-4.3,8.4-4.3c1.1,0,2.1,0.2,3.1,0.5c-0.5,0.2-1.2,0.6-1,1.2c0.3,0.9,1.2,1.1,1.2,1.8
	s-0.3,1.4,0.6,1.2c0.9-0.2,1.2-0.7,1.7-0.6c0.5,0.1,1.4,0.4,0.7,0.8s-1.4,0.9-1.4,0.9l-1,0.3L13.9,8l-1,0.9c0,0-0.2-0.2,0,1.3
	c0.2,1.5,2.9,1.9,4.2,1.4c1.3-0.5,0.4,2.1,0.3,2.9s0.2,1-0.3,1.5c-0.5,0.5-1.5,1.1-0.6,1.4c0,0,3.3-1.8,4.3-3.8c0.6-1.3,1-2.4,1.1-3
	c0,0.4,0.1,0.7,0.1,1.1C21.9,17.3,17.3,21.9,11.5,21.9z"/>
</svg>
