<?xml version="1.0" encoding="utf-8"?>
<!-- Generator: Adobe Illustrator 19.2.1, SVG Export Plug-In . SVG Version: 6.00 Build 0)  -->
<svg version="1.1" id="Слой_1" xmlns="http://www.w3.org/2000/svg" xmlns:xlink="http://www.w3.org/1999/xlink" x="0px" y="0px"
	 viewBox="0 0 55.4 55.4" style="enable-background:new 0 0 55.4 55.4;" xml:space="preserve">
<style type="text/css">
	.st0{fill:#FF8D00;}
</style>
<g>
	<g>
		<path class="st0" d="M27.7,55.4C12.4,55.4,0,43,0,27.7S12.4,0,27.7,0s27.7,12.4,27.7,27.7S43,55.4,27.7,55.4z M27.7,3.4
			C14.3,3.4,3.4,14.3,3.4,27.7S14.3,52,27.7,52S52,41.1,52,27.7S41.1,3.4,27.7,3.4z"/>
	</g>
	<path class="st0" d="M40.6,25.2L22.2,14.6c-1.9-1.1-4.3,0.3-4.3,2.5v21.3c0,2.2,2.4,3.6,4.3,2.5l18.4-10.6
		C42.5,29.1,42.5,26.3,40.6,25.2z M37.6,28l-15.9,9.2c-0.2,0.1-0.5,0-0.5-0.3V18.5c0-0.3,0.3-0.5,0.5-0.3l15.9,9.2
		C37.8,27.5,37.8,27.9,37.6,28z"/>
</g>
</svg>
