<?xml version="1.0" encoding="utf-8"?>
<!-- Generator: Adobe Illustrator 19.2.1, SVG Export Plug-In . SVG Version: 6.00 Build 0)  -->
<svg version="1.1" id="Слой_1" xmlns="http://www.w3.org/2000/svg" xmlns:xlink="http://www.w3.org/1999/xlink" x="0px" y="0px"
	 viewBox="0 0 51.1 44.4" style="enable-background:new 0 0 51.1 44.4;" xml:space="preserve">
<style type="text/css">
	.st0{fill:none;stroke:#FF8D00;stroke-width:2.126;stroke-miterlimit:10;}
</style>
<g>
	<path class="st0" d="M21.3,30.8c0,0,9.3-9.3,16.1-16.1s6-13.6,6-13.6s-6.9-0.8-13.6,6S13.6,23.1,13.6,23.1"/>
	<line class="st0" x1="7.2" y1="20.7" x2="23.7" y2="37.2"/>
	<path class="st0" d="M16.6,30.1l-12,12c-0.8,0.8-2.1,0.8-2.9,0h0c-0.8-0.8-0.8-2.1,0-2.9l12-12"/>
	<path class="st0" d="M26.2,11.2c-1.4-1.4-2.8-2.8-4.1-4.1c-6.7-6.7-13.6-6-13.6-6s-0.8,6.9,6,13.6c1.2,1.2,2.4,2.4,3.7,3.7"/>
	<line class="st0" x1="28" y1="37.2" x2="44.6" y2="20.7"/>
	<path class="st0" d="M37.5,27.8l12,12c0.8,0.8,0.8,2.1,0,2.9l0,0c-0.8,0.8-2.1,0.8-2.9,0l-12-12"/>
	<line class="st0" x1="17.8" y1="26.8" x2="35.6" y2="9"/>
</g>
</svg>
