<?xml version="1.0" encoding="UTF-8" standalone="no"?>
<!-- Generator: Adobe Illustrator 19.2.1, SVG Export Plug-In . SVG Version: 6.00 Build 0)  -->

<svg
   xmlns:dc="http://purl.org/dc/elements/1.1/"
   xmlns:cc="http://creativecommons.org/ns#"
   xmlns:rdf="http://www.w3.org/1999/02/22-rdf-syntax-ns#"
   xmlns:svg="http://www.w3.org/2000/svg"
   xmlns="http://www.w3.org/2000/svg"
   xmlns:sodipodi="http://sodipodi.sourceforge.net/DTD/sodipodi-0.dtd"
   xmlns:inkscape="http://www.inkscape.org/namespaces/inkscape"
   version="1.1"
   id="Слой_1"
   x="0px"
   y="0px"
   viewBox="0 0 51.1 44.4"
   style="enable-background:new 0 0 51.1 44.4;"
   xml:space="preserve"
   inkscape:version="0.91 r13725"
   sodipodi:docname="icon-history-3w.svg"><metadata
     id="metadata25"><rdf:RDF><cc:Work
         rdf:about=""><dc:format>image/svg+xml</dc:format><dc:type
           rdf:resource="http://purl.org/dc/dcmitype/StillImage" /><dc:title></dc:title></cc:Work></rdf:RDF></metadata><defs
     id="defs23" /><sodipodi:namedview
     pagecolor="#ffffff"
     bordercolor="#666666"
     borderopacity="1"
     objecttolerance="10"
     gridtolerance="10"
     guidetolerance="10"
     inkscape:pageopacity="0"
     inkscape:pageshadow="2"
     inkscape:window-width="1327"
     inkscape:window-height="744"
     id="namedview21"
     showgrid="false"
     inkscape:zoom="5.3153151"
     inkscape:cx="25.549999"
     inkscape:cy="22.200001"
     inkscape:window-x="39"
     inkscape:window-y="336"
     inkscape:window-maximized="1"
     inkscape:current-layer="Слой_1" /><style
     type="text/css"
     id="style3">
	.st0{fill:none;stroke:#FF8D00;stroke-width:2.126;stroke-miterlimit:10;}
</style><g
     id="g5"
     style="stroke:#ffffff;stroke-opacity:1"><path
       class="st0"
       d="M21.3,30.8c0,0,9.3-9.3,16.1-16.1s6-13.6,6-13.6s-6.9-0.8-13.6,6S13.6,23.1,13.6,23.1"
       id="path7"
       style="stroke:#ffffff;stroke-opacity:1" /><line
       class="st0"
       x1="7.2"
       y1="20.7"
       x2="23.7"
       y2="37.2"
       id="line9"
       style="stroke:#ffffff;stroke-opacity:1" /><path
       class="st0"
       d="M16.6,30.1l-12,12c-0.8,0.8-2.1,0.8-2.9,0h0c-0.8-0.8-0.8-2.1,0-2.9l12-12"
       id="path11"
       style="stroke:#ffffff;stroke-opacity:1" /><path
       class="st0"
       d="M26.2,11.2c-1.4-1.4-2.8-2.8-4.1-4.1c-6.7-6.7-13.6-6-13.6-6s-0.8,6.9,6,13.6c1.2,1.2,2.4,2.4,3.7,3.7"
       id="path13"
       style="stroke:#ffffff;stroke-opacity:1" /><line
       class="st0"
       x1="28"
       y1="37.2"
       x2="44.6"
       y2="20.7"
       id="line15"
       style="stroke:#ffffff;stroke-opacity:1" /><path
       class="st0"
       d="M37.5,27.8l12,12c0.8,0.8,0.8,2.1,0,2.9l0,0c-0.8,0.8-2.1,0.8-2.9,0l-12-12"
       id="path17"
       style="stroke:#ffffff;stroke-opacity:1" /><line
       class="st0"
       x1="17.8"
       y1="26.8"
       x2="35.6"
       y2="9"
       id="line19"
       style="stroke:#ffffff;stroke-opacity:1" /></g></svg>