<?xml version="1.0" encoding="UTF-8" standalone="no"?>
<!-- Generator: Adobe Illustrator 19.2.1, SVG Export Plug-In . SVG Version: 6.00 Build 0)  -->

<svg
   xmlns:dc="http://purl.org/dc/elements/1.1/"
   xmlns:cc="http://creativecommons.org/ns#"
   xmlns:rdf="http://www.w3.org/1999/02/22-rdf-syntax-ns#"
   xmlns:svg="http://www.w3.org/2000/svg"
   xmlns="http://www.w3.org/2000/svg"
   xmlns:sodipodi="http://sodipodi.sourceforge.net/DTD/sodipodi-0.dtd"
   xmlns:inkscape="http://www.inkscape.org/namespaces/inkscape"
   version="1.1"
   id="Слой_1"
   x="0px"
   y="0px"
   viewBox="0 0 39.7 35.5"
   style="enable-background:new 0 0 39.7 35.5;"
   xml:space="preserve"
   inkscape:version="0.91 r13725"
   sodipodi:docname="icon-social-2.svg"><metadata
     id="metadata4275"><rdf:RDF><cc:Work
         rdf:about=""><dc:format>image/svg+xml</dc:format><dc:type
           rdf:resource="http://purl.org/dc/dcmitype/StillImage" /></cc:Work></rdf:RDF></metadata><defs
     id="defs4273" /><sodipodi:namedview
     pagecolor="#ffffff"
     bordercolor="#666666"
     borderopacity="1"
     objecttolerance="10"
     gridtolerance="10"
     guidetolerance="10"
     inkscape:pageopacity="0"
     inkscape:pageshadow="2"
     inkscape:window-width="1327"
     inkscape:window-height="744"
     id="namedview4271"
     showgrid="false"
     inkscape:zoom="17.098592"
     inkscape:cx="19.85"
     inkscape:cy="17.75"
     inkscape:window-x="39"
     inkscape:window-y="336"
     inkscape:window-maximized="1"
     inkscape:current-layer="Слой_1" /><style
     type="text/css"
     id="style4267">
	.st0{opacity:0.5;fill:#FFFFFF;}
</style><path
     class="st0"
     d="M32,35.5c-0.3,0-0.6-0.1-0.9-0.3l-10-6.8l-5.4,3.9c-0.4,0.3-1,0.4-1.5,0.2c-0.5-0.2-0.9-0.6-1-1.1l-2.7-10.2  L1,17.6c-0.6-0.2-1-0.8-1-1.5c0-0.6,0.4-1.2,1-1.5L37.5,0.1C37.7,0.1,37.9,0,38.1,0c0.1,0,0.1,0,0.2,0c0.4,0,0.7,0.2,1,0.4  c0,0,0.1,0.1,0.1,0.1c0.2,0.3,0.4,0.6,0.4,0.9c0,0.1,0,0.2,0,0.3c0,0.1,0,0.1,0,0.2l-6.2,32.4c-0.1,0.5-0.5,1-0.9,1.2  C32.4,35.5,32.2,35.5,32,35.5L32,35.5z M22,25.3l8.9,6l4.8-25.2L18.4,22.8L22,25.3C22,25.3,22,25.3,22,25.3L22,25.3z M14.6,23.9  l1.2,4.5l2.6-1.8L15,24.3C14.8,24.2,14.7,24.1,14.6,23.9L14.6,23.9z M5.9,16.1l6.6,2.5c0.5,0.2,0.8,0.6,1,1.1l0.8,3.2  c0-0.4,0.2-0.7,0.5-1L31.3,6L5.9,16.1z M5.9,16.1"
     id="path4269"
     style="opacity:1" /></svg>