<?xml version="1.0" encoding="utf-8"?>
<!-- Generator: Adobe Illustrator 19.2.1, SVG Export Plug-In . SVG Version: 6.00 Build 0)  -->
<svg version="1.1" id="Слой_1" xmlns="http://www.w3.org/2000/svg" xmlns:xlink="http://www.w3.org/1999/xlink" x="0px" y="0px"
	 viewBox="0 0 250 35.1" style="enable-background:new 0 0 250 35.1;" xml:space="preserve">
<style type="text/css">
	.st0{fill:#FFFFFF;}
	.st1{fill:#E74C3C;}
</style>
<g>
	<g>
		<g>
			<g>
				<path class="st0" d="M196.2,12.3h-0.7v-8c0.2-0.1,0.5-0.1,0.9-0.2c0.4-0.1,0.9-0.1,1.4-0.1s0.9,0.1,1.2,0.2s0.7,0.4,1,0.6
					c0.2,0.2,0.5,0.6,0.6,1c0.1,0.4,0.2,0.9,0.2,1.4s0,0.9-0.1,1.2c-0.1,0.4-0.2,0.7-0.5,1s-0.5,0.5-0.9,0.6
					c-0.4,0.1-0.7,0.2-1.2,0.2c-0.4,0-0.7,0-1.1-0.1c-0.2-0.1-0.5-0.2-0.6-0.4v2.6H196.2z M196.2,9.1c0.1,0,0.1,0.1,0.2,0.1
					c0.1,0.1,0.2,0.1,0.4,0.1c0.1,0,0.2,0.1,0.5,0.1c0.1,0,0.4,0,0.5,0c0.4,0,0.7-0.1,1-0.2c0.2-0.1,0.5-0.4,0.6-0.5
					c0.1-0.2,0.2-0.5,0.4-0.7c0.1-0.2,0.1-0.6,0.1-1c0-0.9-0.2-1.5-0.6-1.8c-0.4-0.4-1-0.6-1.6-0.6c-0.4,0-0.7,0-0.9,0
					c-0.2,0-0.4,0.1-0.5,0.1v4.4H196.2z"/>
			</g>
			<g>
				<path class="st0" d="M205.8,3.9c0.4,0,0.7,0,1,0.1c0.2,0.1,0.5,0.2,0.7,0.5c0.1,0.2,0.2,0.5,0.4,0.7c0,0.2,0,0.6,0,0.9V10
					c-0.1,0-0.2,0-0.4,0.1c-0.1,0-0.4,0-0.5,0.1c-0.2,0-0.4,0-0.6,0.1c-0.2,0.1-0.5,0-0.7,0c-0.4,0-0.6,0-0.9-0.1
					c-0.2-0.1-0.5-0.1-0.7-0.4c-0.2-0.1-0.4-0.4-0.5-0.6c-0.1-0.2-0.1-0.5-0.1-0.9c0-0.4,0.1-0.6,0.2-0.9c0.1-0.2,0.2-0.5,0.5-0.6
					c0.2-0.1,0.5-0.2,0.9-0.4c0.4-0.1,0.6-0.1,1-0.1c0.1,0,0.2,0,0.4,0s0.2,0,0.4,0c0.1,0,0.2,0,0.2,0c0.1,0,0.1,0,0.1,0V6.3
					c0-0.2,0-0.4,0-0.6s-0.1-0.4-0.2-0.5c-0.1-0.1-0.2-0.2-0.5-0.4c-0.2-0.1-0.5-0.1-0.7-0.1c-0.5,0-0.7,0-1,0.1
					c-0.2,0.1-0.4,0.1-0.5,0.1l-0.1-0.6c0.1-0.1,0.4-0.1,0.6-0.1C205.1,3.9,205.3,3.9,205.8,3.9z M205.8,9.6c0.2,0,0.6,0,0.7,0
					c0.2,0,0.4,0,0.6-0.1V7.4c-0.1,0-0.2-0.1-0.4-0.1c-0.2,0-0.5-0.1-0.7-0.1c-0.2,0-0.4,0-0.6,0s-0.4,0.1-0.6,0.1
					c-0.1,0.1-0.4,0.2-0.4,0.4c-0.1,0.1-0.1,0.4-0.1,0.6c0,0.2,0,0.4,0.1,0.6c0.1,0.1,0.1,0.2,0.4,0.4c0.1,0.1,0.2,0.1,0.5,0.2
					C205.3,9.6,205.6,9.6,205.8,9.6z"/>
			</g>
			<g>
				<path class="st0" d="M213.6,3.9c0.2,0,0.5,0,0.7,0c0.2,0,0.4,0.1,0.5,0.1l-0.1,0.6c-0.1,0-0.2-0.1-0.4-0.1c-0.1,0-0.5,0-0.7,0
					c-0.4,0-0.6,0-0.7,0.1c-0.2,0-0.4,0.1-0.4,0.1v5.4h-0.7V4.3c0.2-0.1,0.5-0.1,0.9-0.2C212.6,3.9,213.1,3.9,213.6,3.9z"/>
			</g>
			<g>
				<path class="st0" d="M218.1,4.1h2.5v0.6h-2.5v3.2c0,0.4,0,0.6,0.1,0.9c0,0.2,0.1,0.4,0.2,0.5c0.1,0.1,0.2,0.2,0.4,0.2
					c0.1,0,0.4,0,0.5,0c0.4,0,0.6,0,0.7-0.1c0.2-0.1,0.4-0.1,0.5-0.2l0.2,0.6c-0.1,0.1-0.2,0.1-0.6,0.2c-0.2,0.1-0.6,0.1-0.9,0.1
					c-0.4,0-0.7,0-1-0.1c-0.2-0.1-0.5-0.2-0.6-0.5c-0.1-0.2-0.2-0.5-0.4-0.7c-0.1-0.2-0.1-0.6-0.1-1.1V2.2l0.7-0.1v2H218.1z"/>
			</g>
			<g>
				<path class="st0" d="M223.5,4.3c0.2-0.1,0.5-0.1,1-0.2c0.4-0.1,0.9-0.1,1.5-0.1c0.5,0,0.9,0.1,1.1,0.2c0.4,0.1,0.6,0.4,0.7,0.6
					c0.2,0.2,0.4,0.5,0.4,0.9c0.1,0.4,0.1,0.7,0.1,1.1v3.4h-0.7V7c0-0.5,0-0.9-0.1-1.1c0-0.2-0.1-0.5-0.2-0.7s-0.4-0.4-0.5-0.4
					c-0.2-0.1-0.5-0.1-0.9-0.1s-0.6,0-1,0c-0.2,0-0.5,0.1-0.5,0.1v5.4h-0.7V4.3H223.5z"/>
			</g>
			<g>
				<path class="st0" d="M242.4,3.9c0.2,0,0.5,0,0.7,0c0.2,0,0.4,0.1,0.5,0.1l-0.1,0.6c-0.1,0-0.2-0.1-0.4-0.1c-0.2,0-0.5,0-0.7,0
					c-0.4,0-0.6,0-0.7,0.1c-0.2,0-0.4,0.1-0.4,0.1v5.4h-0.7V4.3c0.2-0.1,0.5-0.1,0.9-0.2C241.4,3.9,241.9,3.9,242.4,3.9z"/>
			</g>
			<g>
				<path class="st0" d="M247.5,9.6c0.5,0,0.9-0.1,1.1-0.2c0.2-0.1,0.5-0.4,0.5-0.7c0-0.1,0-0.4-0.1-0.4c0-0.1-0.1-0.2-0.2-0.4
					c-0.1-0.1-0.2-0.2-0.5-0.2c-0.2-0.1-0.5-0.2-0.7-0.4C247.3,7.1,247,7,246.9,7c-0.2-0.1-0.4-0.2-0.5-0.4
					c-0.1-0.1-0.2-0.2-0.4-0.5c-0.1-0.1-0.1-0.4-0.1-0.6c0-0.5,0.2-0.9,0.6-1.2c0.4-0.2,0.9-0.5,1.6-0.5c0.4,0,0.7,0,1,0.1
					c0.2,0.1,0.5,0.1,0.6,0.2l-0.4,0.7c-0.1,0-0.2-0.1-0.5-0.2c-0.2-0.1-0.6-0.1-1-0.1c-0.1,0-0.4,0-0.5,0c-0.1,0-0.2,0.1-0.4,0.1
					c-0.1,0.1-0.2,0.1-0.2,0.2c0,0.1-0.1,0.2-0.1,0.4s0,0.4,0.1,0.4c0.1,0.1,0.1,0.2,0.2,0.4c0.1,0.1,0.2,0.1,0.5,0.2
					c0.1,0.1,0.4,0.1,0.6,0.2c0.2,0.1,0.5,0.2,0.7,0.2c0.2,0.1,0.4,0.2,0.6,0.4c0.1,0.1,0.2,0.2,0.4,0.5c0.1,0.2,0.1,0.5,0.1,0.7
					c0,0.5-0.2,1-0.6,1.2c-0.4,0.2-1,0.4-1.7,0.4c-0.5,0-1,0-1.2-0.1c-0.2-0.1-0.5-0.1-0.6-0.2l0.2-0.7c0,0,0.1,0,0.1,0.1
					c0.1,0,0.2,0.1,0.4,0.1c0.1,0,0.2,0.1,0.5,0.1C247,9.6,247.3,9.6,247.5,9.6z"/>
			</g>
		</g>
		<g>
			<g>
				<path class="st0" d="M231.5,5.5h5.3v0.6h-5.3V5.5z M231.5,8.1h5.3v0.6h-5.3V8.1z"/>
			</g>
		</g>
	</g>
	<g>
		<g>
			<path class="st0" d="M81.9,33.3l-3.4-7.9H66.3l-3.6,7.9h-5.3l14.9-32l14.9,32H81.9z M68.2,21.3h8.6l-3.2-7
				c-0.1-0.5-0.4-1-0.6-1.6c-0.2-0.6-0.4-1.2-0.6-2c-0.1,0.6-0.4,1.4-0.5,1.8c-0.2,0.6-0.4,1.1-0.6,1.6L68.2,21.3z"/>
		</g>
		<g>
			<path class="st0" d="M91.8,33.3l10-16.1L93,2.6h5.3l4.4,7.5c0.2,0.4,0.7,1.2,1.4,2.5l0.4,0.6c0.2-0.5,0.5-0.9,0.7-1.4
				c0.2-0.5,0.6-1,1-1.6l4.7-7.5h5.2l-9,14.5l9.7,16.1h-5.5l-5.4-8.7l-0.1-0.1c-0.6-1.1-1.1-2.1-1.6-3c-0.2,0.5-0.5,1-0.7,1.5
				c-0.2,0.5-0.6,1-0.9,1.6l-5.4,8.7H91.8z"/>
		</g>
		<g>
			<path class="st0" d="M152.4,18c0,2.2-0.4,4.3-1.2,6.2c-0.9,2-2,3.7-3.6,5.2s-3.3,2.7-5.4,3.6c-2.1,0.9-4.1,1.2-6.3,1.2
				c-2.2,0-4.3-0.4-6.3-1.2c-2-0.9-3.8-2-5.3-3.4c-1.6-1.5-2.7-3.2-3.6-5.2c-0.9-2-1.2-4.1-1.2-6.3c0-2.2,0.4-4.3,1.2-6.3
				s2-3.7,3.6-5.3c1.6-1.5,3.3-2.7,5.3-3.4s4.1-1.2,6.3-1.2s4.3,0.4,6.3,1.2c2,0.7,3.8,2,5.3,3.4c1.6,1.6,2.7,3.3,3.6,5.3
				C152.1,13.8,152.4,15.9,152.4,18z M147.3,18c0-1.6-0.2-3.1-0.9-4.4s-1.4-2.7-2.5-3.7c-1-1.1-2.2-2-3.6-2.5
				c-1.4-0.6-2.8-0.9-4.3-0.9c-1.5,0-3,0.2-4.3,0.9s-2.6,1.4-3.7,2.5s-1.8,2.3-2.5,3.7s-0.9,2.8-0.9,4.4c0,1.6,0.2,3.1,0.9,4.4
				c0.6,1.4,1.4,2.6,2.5,3.7s2.2,2,3.7,2.5c1.5,0.5,2.8,0.9,4.3,0.9c1.5,0,3-0.2,4.3-0.9c1.4-0.6,2.6-1.4,3.7-2.5s1.8-2.3,2.5-3.7
				C146.9,21,147.3,19.6,147.3,18z"/>
		</g>
		<g>
			<path class="st0" d="M157.4,33.3v-32l19.6,18.8c0.5,0.5,1.1,1.1,1.6,1.7s1.1,1.2,1.7,2.1V2.6h4.7v32L165,15.4
				c-0.5-0.5-1.1-1.1-1.6-1.6c-0.5-0.6-1-1.2-1.5-1.8v21.4L157.4,33.3L157.4,33.3z"/>
		</g>
	</g>
	<g>
		<polygon class="st1" points="32.7,0.1 28.5,3.6 42.8,17.7 28.9,31.4 32.4,35.1 50.1,17.5 		"/>
		<polygon class="st1" points="21.2,3.7 17.7,0 0,17.6 17.3,34.9 21.5,31.6 7.3,17.3 		"/>
	</g>
</g>
</svg>
