<?xml version="1.0" encoding="utf-8"?>
<!-- Generator: Adobe Illustrator 19.2.1, SVG Export Plug-In . SVG Version: 6.00 Build 0)  -->
<svg version="1.1" id="Слой_1" xmlns="http://www.w3.org/2000/svg" xmlns:xlink="http://www.w3.org/1999/xlink" x="0px" y="0px"
	 viewBox="0 0 39.7 39.7" style="enable-background:new 0 0 39.7 39.7;" xml:space="preserve">
<style type="text/css">
	.st0{fill:#FFFFFF;}
</style>
<g id="Layer_2_1_">
	<g>
		<rect x="17.1" y="17.2" transform="matrix(0.9482 -0.3176 0.3176 0.9482 -5.2866 7.3497)" class="st0" width="5.6" height="5.4"/>
		<g>
			
				<rect x="17.1" y="17.2" transform="matrix(0.9482 -0.3176 0.3176 0.9482 -5.2866 7.3497)" class="st0" width="5.6" height="5.4"/>
			<path class="st0" d="M38.1,14.4C34,0.7,28.1-2.4,14.4,1.7s-16.8,10-12.7,23.7s10,16.8,23.7,12.7S42.2,28.1,38.1,14.4z M31.2,23.3
				l-2.6,0.9l0.9,2.7c0.3,1.1-0.2,2.3-1.3,2.6c-0.2,0.1-0.5,0.1-0.7,0.1c-0.8,0-1.6-0.6-1.9-1.4l-0.9-2.7l-5.3,1.8l0.9,2.7
				c0.3,1.1-0.2,2.3-1.3,2.6c-0.2,0.1-0.5,0.1-0.7,0.1c-0.8,0-1.6-0.6-1.9-1.4l-0.9-2.7l-2.6,0.9c-0.2,0.1-0.5,0.1-0.7,0.1
				c-0.8,0-1.6-0.6-1.9-1.4c-0.3-1.1,0.2-2.3,1.3-2.6l2.6-0.9l-1.7-5.1l-2.6,0.9c-0.2,0.1-0.5,0.1-0.7,0.1c-0.8,0-1.6-0.6-1.9-1.4
				c-0.3-1.1,0.2-2.3,1.3-2.6l2.6-0.9L10.3,13c-0.3-1.1,0.2-2.3,1.3-2.6c1.1-0.3,2.3,0.2,2.6,1.3l0.9,2.7l5.3-1.8l-0.9-2.7
				c-0.3-1.1,0.2-2.3,1.3-2.6c1.1-0.3,2.3,0.2,2.6,1.3l0.9,2.7l2.6-0.9c1.1-0.3,2.3,0.2,2.6,1.3c0.3,1.1-0.2,2.3-1.3,2.6l-2.6,0.9
				l1.7,5.1l2.6-0.9c1.1-0.3,2.3,0.2,2.6,1.3C32.8,21.7,32.3,22.9,31.2,23.3z"/>
		</g>
	</g>
</g>
</svg>
