<?xml version="1.0" encoding="utf-8"?>
<!-- Generator: Adobe Illustrator 19.2.1, SVG Export Plug-In . SVG Version: 6.00 Build 0)  -->
<svg version="1.1" id="Слой_1" xmlns="http://www.w3.org/2000/svg" xmlns:xlink="http://www.w3.org/1999/xlink" x="0px" y="0px"
	 viewBox="0 0 39.7 45" style="enable-background:new 0 0 39.7 45;" xml:space="preserve">
<style type="text/css">
	.st0{fill:#FFFFFF;}
</style>
<g>
	<path class="st0" d="M24,18.9c-1.3,0-2.3,1.1-2.3,2.5c0,1.4,1,2.5,2.3,2.5c1.3,0,2.3-1.1,2.3-2.5C26.3,20,25.3,18.9,24,18.9
		L24,18.9z M15.7,18.9c-1.3,0-2.3,1.1-2.3,2.5c0,1.4,1,2.5,2.3,2.5c1.3,0,2.3-1.1,2.3-2.5C18.1,20,17,18.9,15.7,18.9L15.7,18.9z"/>
	<path class="st0" d="M35.1,0H4.7C2.1,0,0,2.1,0,4.7v30.4c0,2.6,2.1,4.7,4.7,4.7h25.7l-1.2-4.2l2.9,2.7l2.7,2.5l4.9,4.2V4.7
		C39.7,2.1,37.6,0,35.1,0z M26.3,29.4L26.3,29.4c0,0-0.8-1-1.5-1.8c3-0.8,4.1-2.7,4.1-2.7c-0.9,0.6-1.8,1-2.6,1.3
		c-1.1,0.5-2.2,0.8-3.3,1c-2.2,0.4-4.2,0.3-5.9,0c-1.3-0.2-2.4-0.6-3.3-1c-0.5-0.2-1.1-0.5-1.7-0.8c-0.1,0-0.1-0.1-0.2-0.1
		c0,0-0.1,0-0.1,0c-0.4-0.2-0.6-0.4-0.6-0.4s1.1,1.8,4,2.7c-0.7,0.9-1.5,1.9-1.5,1.9c-5-0.2-6.9-3.4-6.9-3.4
		c0-7.2,3.3-13.1,3.3-13.1c3.3-2.4,6.4-2.4,6.4-2.4l0.2,0.3c-4.1,1.2-5.9,3-5.9,3s0.5-0.3,1.3-0.6c2.4-1.1,4.4-1.3,5.2-1.4
		c0.1,0,0.2,0,0.4,0c1.4-0.2,3-0.2,4.6,0c2.2,0.2,4.5,0.9,6.8,2.2c0,0-1.8-1.7-5.7-2.9l0.3-0.4c0,0,3.1-0.1,6.4,2.4
		c0,0,3.3,5.9,3.3,13.1C33.2,26,31.3,29.2,26.3,29.4z"/>
</g>
</svg>
