<?xml version="1.0" encoding="utf-8"?>
<!-- Generator: Adobe Illustrator 19.2.1, SVG Export Plug-In . SVG Version: 6.00 Build 0)  -->
<svg version="1.1" id="Слой_1" xmlns="http://www.w3.org/2000/svg" xmlns:xlink="http://www.w3.org/1999/xlink" x="0px" y="0px"
	 viewBox="0 0 35 35" style="enable-background:new 0 0 35 35;" xml:space="preserve">
<style type="text/css">
	.st0{display:none;}
	.st1{fill:#F1F2F2;}
	.st2{fill-rule:evenodd;clip-rule:evenodd;fill:none;stroke:#FFFFFF;stroke-miterlimit:10;}
</style>
<g>
	<path class="st0" d="M50,48.5h-256.9c-3.3,0-6-2.7-6-6v-52c0-3.3,2.7-6,6-6H50c3.3,0,6,2.7,6,6v52C56,45.8,53.3,48.5,50,48.5z"/>
	
		<text transform="matrix(1 0 0 1 -183.5115 23.6317)" style="display:none;opacity:0.5;fill:#F1F2F2; font-family:'DINPro-Regular'; font-size:16px;">ЧТО ТАКОЕ ELOPLAY</text>
	<g>
		<path class="st1" d="M24.3,16.1L14,10.2c-1.1-0.6-2.4,0.2-2.4,1.4v11.9c0,1.2,1.3,2,2.4,1.4l10.3-5.9
			C25.4,18.3,25.4,16.7,24.3,16.1z M22.6,17.7l-8.9,5.1c-0.1,0.1-0.3,0-0.3-0.2V12.4c0-0.2,0.2-0.3,0.3-0.2l8.9,5.1
			C22.7,17.4,22.7,17.6,22.6,17.7z"/>
		<circle class="st2" cx="17.5" cy="17.5" r="17"/>
	</g>
</g>
</svg>
