<?xml version="1.0" encoding="utf-8"?>
<!-- Generator: Adobe Illustrator 19.2.1, SVG Export Plug-In . SVG Version: 6.00 Build 0)  -->
<svg version="1.1" id="Слой_1" xmlns="http://www.w3.org/2000/svg" xmlns:xlink="http://www.w3.org/1999/xlink" x="0px" y="0px"
	 viewBox="0 0 137 45" style="enable-background:new 0 0 137 45;" xml:space="preserve">
<style type="text/css">
	.st0{fill:#FFFFFF;}
</style>
<g>
	<polygon class="st0" points="25.9,8.4 25.7,8.4 25.5,13.1 24.9,23.3 26.6,23.3 26,13.1 	"/>
	<path class="st0" d="M36,7h-0.5v16.2h1.2c0.9,0,0.9-0.5,0.9-1.6V9.1C37.7,7.3,37.5,7,36,7z"/>
	<path class="st0" d="M74.4,7H73v13.6h1.4c0.8-0.1,0.8-0.4,0.8-1.5v-11C75.2,7.3,75,7,74.4,7z"/>
	<path class="st0" d="M-0.2,0.5v45h136.6v-45H-0.2z M27.4,40.1l-0.8-15.4h-1.9l-1,15.4H22l2.5-34.6h3.8l2,34.6H27.4z M40.4,21
		c0,2-0.1,2.5-1,3c0.8,0.4,1,1,1,2.9v13.3h-2.7v-14c0-1-0.1-1.5-1-1.5h-1.2v15.5h-2.7V5.6h4.3c2.7,0,3.1,0.9,3.1,3.4V21z M49.3,7H47
		v33.1h-2.7V7H42V5.6h7.3V7z M51,40.5c-0.9,0-1.6-0.7-1.6-1.6c0-0.9,0.7-1.6,1.6-1.6c0.9,0,1.6,0.7,1.6,1.6
		C52.7,39.8,52,40.5,51,40.5z M61.5,40.1h-5.5V5.6h2.7v32.8h2.9V40.1z M68,7.1h-2.5v13.3h2.1V22h-2.1v16.5H68v1.6h-5.2V5.6H68V7.1z
		 M77.9,19.3c0,1.2-0.2,1.7-0.9,2.1c0.6,0.3,0.9,1,0.9,2.9v13.5c0,1.5-0.2,2.2-1.9,2.2h-5.7V5.6h5.8c1.3,0,1.8,0.9,1.8,2.2V19.3z
		 M86.2,7.1h-2.5v13.3h2.1V22h-2.1v16.5h2.5v1.6H81V5.6h5.2V7.1z M96,36.7c0,2.5-0.5,3.4-3.2,3.4h-4.4V5.6h4.4C95.5,5.6,96,6.5,96,9
		V36.7z M103.9,7.1h-2.5v13.3h2.1V22h-2.1v16.5h2.5v1.6h-5.2V5.6h5.2V7.1z M111.2,40.1h-3.8l-1.5-34.6h2.8l0.9,26.1l0.2,5.5h0.3
		l0.2-5.5l1.5-26.1h1.9L111.2,40.1z"/>
	<path class="st0" d="M74.4,22H73v16.6h1.3c0.8,0,0.9-0.2,0.9-1.1v-14C75.2,22.6,75.1,22,74.4,22z"/>
	<path class="st0" d="M91.7,7h-0.5v31.7h0.5c1.4,0,1.6-0.3,1.6-2.1V9.1C93.3,7.3,93.1,7,91.7,7z"/>
</g>
</svg>
