<?xml version="1.0" encoding="utf-8"?>
<!-- Generator: Adobe Illustrator 19.2.1, SVG Export Plug-In . SVG Version: 6.00 Build 0)  -->
<svg version="1.1" id="Слой_1" xmlns="http://www.w3.org/2000/svg" xmlns:xlink="http://www.w3.org/1999/xlink" x="0px" y="0px"
	 viewBox="0 0 314.3 90.1" style="enable-background:new 0 0 314.3 90.1;" xml:space="preserve">
<style type="text/css">
	.st0{fill:#FFFFFF;}
</style>
<g>
	<g>
		<path class="st0" d="M35.1,41.3h-9v13.1h9c3.8,0,9.9-1.1,9.9-6.4C45,41.3,37,41.3,35.1,41.3z"/>
		<path class="st0" d="M44.1,24.7c0-6.7-9-6.2-9-6.2h-9v12.9h9C36.7,31.4,44.1,30.8,44.1,24.7z"/>
		<path class="st0" d="M78.9,41.7v22.4c0,0.3-0.3,0.6-0.9,0.6h-10c-0.5,0-0.9-0.3-0.9-0.6V31.8c0-0.3,0.3-0.6,0.9-0.6H73L51.2,0H0
			v71.9h101.5L80.4,41.7H78.9z M56.5,48.3c0,15.7-17.2,16.4-21.4,16.4H15.4c-0.4,0-0.8-0.3-0.8-0.6V8.8c0-0.3,0.3-0.6,0.8-0.6h19.7
			c0,0,20.6-0.5,20.6,16c0,6.5-3.8,10.1-8.4,11.8C56.8,39,56.5,48.3,56.5,48.3z"/>
		<path class="st0" d="M88,18.6h-7.3l8.5,12.4c3.3-0.1,7.9-1.4,7.9-6.2C97.1,18.6,90,18.6,88,18.6z"/>
		<path class="st0" d="M314.3,0H67.2l5.7,8.1H88c0,0,20.8,0,20.8,16.7c0,9.9-6.9,13.9-12.8,15.6l13.5,20.1l8,11.4h196.9V0z
			 M132.3,64.1c0,0.3-0.4,0.6-0.9,0.6h-9.9c-0.5,0-0.9-0.3-0.9-0.6V8.8c0-0.3,0.3-0.6,0.9-0.6h9.9c0.5,0,0.9,0.3,0.9,0.6V64.1z
			 M199.8,64.2c0,0.3-0.3,0.6-0.9,0.6h-8.7c-0.4,0-0.8-0.2-0.8-0.6l-0.4-4.9c-4.5,4.1-9.5,6.2-16.2,6.2c-16.5,0-29.4-10.6-29.4-29.2
			c0-16.8,13.7-29.1,30.6-29.1c8.6,0,16.2,3.1,21.7,8.2c0.3,0.2,0.3,0.7,0,1l-7,6.5c-0.3,0.2-0.9,0.2-1.2,0
			c-3.4-3.2-8.2-5.3-13.4-5.3c-10.5,0-18.9,6.9-18.9,18.7c0,13.1,8.5,18.7,18.9,18.7c5.6,0,10.7-2.3,14.3-5.9v-7.8h-15.2
			c-0.5,0-0.9-0.3-0.9-0.6v-8.2c0-0.3,0.3-0.6,0.9-0.6h25.8c0.5,0,0.9,0.3,0.9,0.6V64.2z M258.9,64.1c0,0.3-0.3,0.6-0.8,0.6h-10
			c-0.5,0-0.9-0.3-0.9-0.6v-23h-22.9v23c0,0.3-0.4,0.6-0.9,0.6h-9.9c-0.5,0-0.9-0.3-0.9-0.6V8.8c0-0.3,0.3-0.6,0.9-0.6h9.9
			c0.5,0,0.9,0.3,0.9,0.6v22.1h22.9V8.8c0-0.3,0.3-0.6,0.9-0.6h10c0.4,0,0.8,0.3,0.8,0.6V64.1z M303.8,17.7c0,0.3-0.3,0.6-0.9,0.6
			h-11.6v45.8c0,0.3-0.3,0.6-0.8,0.6h-9.9c-0.5,0-0.8-0.3-0.8-0.6V18.2h-11.6c-0.5,0-0.9-0.2-0.9-0.6V9.3c0-0.3,0.3-0.6,0.9-0.6
			h34.7c0.5,0,0.9,0.3,0.9,0.6V17.7z"/>
	</g>
	<g>
		<path class="st0" d="M7.6,76.5h2.3v12.1h7.6v1.5h-10V76.5z"/>
		<path class="st0" d="M23,85.8l-1.9,4.3h-2.4l6.1-13.5h2.8l6.1,13.5h-2.5l-1.9-4.3H23z M28.9,84.4l-1.8-3.9
			c-0.4-0.9-0.7-1.7-0.9-2.5h-0.1c-0.3,0.8-0.6,1.6-0.9,2.4l-1.8,3.9H28.9z"/>
		<path class="st0" d="M37.9,90.1l-4.5-13.5h2.4l2.1,6.8c0.5,1.7,1,3.4,1.3,4.7h0.1c0.3-1.3,0.8-2.9,1.5-4.7l2.4-6.8h2.4l2.2,6.9
			c0.5,1.6,1,3.2,1.2,4.6H49c0.4-1.5,0.9-3,1.4-4.7l2.4-6.8h2.4l-5.1,13.5h-2.4l-2.3-7c-0.6-1.7-0.9-3-1.2-4.4h-0.1
			c-0.3,1.3-0.7,2.7-1.4,4.4l-2.5,7H37.9z"/>
		<path class="st0" d="M63.1,76.5h9.6V78h-7.3v4.5h6.8v1.4h-6.8v6.1h-2.3V76.5z"/>
		<path class="st0" d="M78.3,76.5v13.5H76V76.5H78.3z"/>
		<path class="st0" d="M82.3,76.7c1.2-0.2,2.8-0.3,4.4-0.3c2.5,0,4.1,0.3,5.2,1.1c0.9,0.6,1.4,1.5,1.4,2.6c0,1.8-1.5,3-3.4,3.4v0.1
			c1.4,0.4,2.2,1.3,2.6,2.7c0.6,1.9,1,3.2,1.4,3.7h-2.4c-0.3-0.4-0.7-1.5-1.2-3.2c-0.5-1.9-1.5-2.6-3.6-2.6h-2.2v5.9h-2.3V76.7z
			 M84.6,82.9H87c2.5,0,4-1,4-2.6c0-1.7-1.7-2.5-4.1-2.5c-1.1,0-1.9,0.1-2.3,0.2V82.9z"/>
		<path class="st0" d="M111.7,84.1c-0.1-1.9-0.3-4.2-0.3-5.8h-0.1c-0.6,1.6-1.4,3.3-2.3,5.1l-3.2,6.6h-1.8l-2.9-6.4
			c-0.8-1.9-1.6-3.6-2.1-5.3h-0.1c-0.1,1.7-0.2,4-0.3,6l-0.5,5.8h-2.2l1.2-13.5h2.9l3.1,6.5c0.7,1.7,1.4,3.1,1.8,4.6h0.1
			c0.5-1.4,1.1-2.8,1.9-4.6l3.2-6.5h2.9l1.1,13.5h-2.3L111.7,84.1z"/>
	</g>
</g>
</svg>
