<?xml version="1.0" encoding="utf-8"?>
<!-- Generator: Adobe Illustrator 19.2.1, SVG Export Plug-In . SVG Version: 6.00 Build 0)  -->
<svg version="1.1" id="Слой_1" xmlns="http://www.w3.org/2000/svg" xmlns:xlink="http://www.w3.org/1999/xlink" x="0px" y="0px"
	 viewBox="0 0 464.7 585.2" style="enable-background:new 0 0 464.7 585.2;" xml:space="preserve">
<style type="text/css">
	.st0{opacity:0.42;}
	.st1{fill:url(#SVGID_1_);}
	.st2{fill:url(#SVGID_2_);}
	.st3{fill:url(#SVGID_3_);}
	.st4{opacity:0.3;}
	.st5{fill:#FFFFFF;}
	.st6{opacity:0.68;fill:#FFFFFF;}
	.st7{opacity:0.2;}
	.st8{opacity:0.68;}
</style>
<g>
	<g class="st0">
		
			<image style="overflow:visible;" width="1875" height="1058" xlink:href="E0335D92.png"  transform="matrix(0.24 0 0 0.24 7.2664 367.3963)">
		</image>
	</g>
	<g>
		<g>
			
				<image style="overflow:visible;opacity:0.75;" width="1935" height="2102" xlink:href="E0335D96.png"  transform="matrix(0.24 0 0 0.24 0 0)">
			</image>
			<g>
				
					<linearGradient id="SVGID_1_" gradientUnits="userSpaceOnUse" x1="-610.0496" y1="856.3973" x2="-255.0121" y2="856.3973" gradientTransform="matrix(4.489700e-011 1 -1 4.489700e-011 1088.5291 684.6634)">
					<stop  offset="0" style="stop-color:#D5718E"/>
					<stop  offset="0.1297" style="stop-color:#D77386"/>
					<stop  offset="0.3302" style="stop-color:#DE7770"/>
					<stop  offset="0.5767" style="stop-color:#E87E4D"/>
					<stop  offset="0.8569" style="stop-color:#F7881C"/>
					<stop  offset="1" style="stop-color:#FF8D00"/>
				</linearGradient>
				<path class="st1" d="M88.4,153.3l130.1-75c8.5-4.9,19-4.9,27.4,0l130.1,75c8.5,4.9,13.7,14,13.7,23.8v150
					c0,9.8-5.2,18.9-13.7,23.8l-130.1,75c-8.5,4.9-19,4.9-27.4,0l-130.1-75c-8.5-4.9-13.7-14-13.7-23.8v-150
					C74.6,167.3,79.9,158.2,88.4,153.3z"/>
			</g>
		</g>
		<g>
			
				<image style="overflow:visible;opacity:0.75;" width="1935" height="1105" xlink:href="E0335D91.png"  transform="matrix(0.24 0 0 0.24 0.2513 251.4105)">
			</image>
			<g>
				<linearGradient id="SVGID_2_" gradientUnits="userSpaceOnUse" x1="74.7979" y1="383.9451" x2="389.7979" y2="383.9451">
					<stop  offset="0" style="stop-color:#D5718E"/>
					<stop  offset="0.1297" style="stop-color:#D77386"/>
					<stop  offset="0.3302" style="stop-color:#DE7770"/>
					<stop  offset="0.5767" style="stop-color:#E87E4D"/>
					<stop  offset="0.8569" style="stop-color:#F7881C"/>
					<stop  offset="1" style="stop-color:#FF8D00"/>
				</linearGradient>
				<path class="st2" d="M232.3,417.6L74.8,326v13.3c0,9.8,5.3,18.9,13.8,23.8l130.1,75c8.5,4.9,19,4.9,27.5,0l130-75
					c8.5-4.9,13.7-14,13.7-23.8V326L232.3,417.6z"/>
			</g>
		</g>
		<g>
			
				<image style="overflow:visible;opacity:0.75;" width="1899" height="2066" xlink:href="E0335D93.png"  transform="matrix(0.24 0 0 0.24 3.4808 4.2968)">
			</image>
			<g>
				<linearGradient id="SVGID_3_" gradientUnits="userSpaceOnUse" x1="408.9266" y1="120.3625" x2="53.7703" y2="384.51">
					<stop  offset="0" style="stop-color:#D5718E"/>
					<stop  offset="0.1297" style="stop-color:#D77386"/>
					<stop  offset="0.3302" style="stop-color:#DE7770"/>
					<stop  offset="0.5767" style="stop-color:#E87E4D"/>
					<stop  offset="0.8569" style="stop-color:#F7881C"/>
					<stop  offset="1" style="stop-color:#FF8D00"/>
				</linearGradient>
				<path class="st3" d="M375.6,153.3l-129.8-75c-8.5-4.9-18.8-4.9-27.3,0L88,153.3c-8.5,4.9-14.2,14-14.2,23.8v150
					c0,9.8,5.8,18.9,14.3,23.8l130.3,75c8.5,4.9,19.1,4.9,27.6,0l129.6-75c8.5-4.9,13.3-14,13.3-23.8v-150
					C388.8,167.3,384.1,158.2,375.6,153.3z M366.8,315.6c0,8.3-5,16-12.2,20.1l-110.3,63.5c-7.2,4.1-16.2,4.1-23.4,0l-109.3-63.5
					c-7.2-4.1-10.9-11.8-10.9-20.1V188.7c0-8.3,3.6-16,10.8-20.1l109.6-63.5c7.2-4.1,15.8-4.1,23,0l110.5,63.5
					c7.2,4.1,12.1,11.8,12.1,20.1V315.6z"/>
			</g>
		</g>
		<g class="st4">
			<path class="st5" d="M111.6,340.6l109.3,63.5c7.2,4.1,16.1,4.1,23.3,0l110.4-63.5c7.2-4.1,12.2-11.8,12.2-20.1v-4.9
				c0,8.3-5,16-12.2,20.1l-110.3,63.5c-7.2,4.1-16.2,4.1-23.4,0l-109.3-63.5c-7.2-4.1-10.9-11.8-10.9-20.1v4.9
				C100.8,328.8,104.5,336.5,111.6,340.6z"/>
			<path class="st5" d="M375.6,153.3l-129.8-75c-8.5-4.9-18.8-4.9-27.3,0L88,153.3c-8.5,4.9-14.2,14-14.2,23.8v4.9
				c0-9.8,5.7-18.9,14.2-23.8l130.4-75c8.5-4.9,18.9-4.9,27.4,0l129.7,75c8.5,4.9,13.2,14,13.2,23.8v-4.9
				C388.8,167.3,384.1,158.2,375.6,153.3z"/>
		</g>
		<path class="st6" d="M232.3,175.5c1.8,0,3.6,0.5,5.2,1.4l57.2,33c3.2,1.8,5.2,5.3,5.2,9v65.9c0,3.7-2,7.1-5.2,9l-57.2,33
			c-1.6,0.9-3.4,1.4-5.2,1.4c-1.8,0-3.6-0.5-5.2-1.4l-57.2-33c-3.2-1.8-5.2-5.3-5.2-9v-65.9c0-3.7,2-7.1,5.2-9l57.2-33
			C228.7,176,230.5,175.5,232.3,175.5 M232.3,167.3c-3.2,0-6.4,0.8-9.3,2.5l-57.2,33c-5.7,3.3-9.3,9.4-9.3,16.1v65.9
			c0,6.6,3.5,12.8,9.3,16.1l57.2,33c2.9,1.7,6.1,2.5,9.3,2.5c3.2,0,6.4-0.8,9.3-2.5l57.2-33c5.7-3.3,9.3-9.4,9.3-16.1v-65.9
			c0-6.6-3.5-12.8-9.3-16.1l-57.2-33C238.7,168.2,235.5,167.3,232.3,167.3L232.3,167.3z"/>
		<g class="st7">
			<path class="st5" d="M184.7,160.5l-9.8-5.6c-1-0.6-2.3,0.1-2.3,1.3v11.3c0,1.2,1.3,1.9,2.3,1.3l9.8-5.6
				C185.7,162.6,185.7,161.1,184.7,160.5"/>
			<path class="st5" d="M137.2,194.5l-9.8-5.6c-1-0.6-2.3,0.1-2.3,1.3v11.3c0,1.2,1.3,1.9,2.3,1.3l9.8-5.6
				C138.2,196.6,138.2,195.1,137.2,194.5"/>
			<path class="st5" d="M137.2,250.4l-9.8-5.6c-1-0.6-2.3,0.1-2.3,1.3v11.3c0,1.2,1.3,1.9,2.3,1.3l9.8-5.6
				C138.2,252.5,138.2,251,137.2,250.4"/>
			<path class="st5" d="M139.7,309.2l-9.8-5.6c-1-0.6-2.3,0.1-2.3,1.3v11.3c0,1.2,1.3,1.9,2.3,1.3l9.8-5.6
				C140.8,311.3,140.8,309.8,139.7,309.2"/>
			<path class="st5" d="M184.7,339.5l-9.8-5.6c-1-0.6-2.3,0.1-2.3,1.3v11.3c0,1.2,1.3,1.9,2.3,1.3l9.8-5.6
				C185.7,341.5,185.7,340,184.7,339.5"/>
			<path class="st5" d="M237,367.3l-9.8-5.6c-1-0.6-2.3,0.1-2.3,1.3v11.3c0,1.2,1.3,1.9,2.3,1.3l9.8-5.6
				C238,369.4,238,367.9,237,367.3"/>
			<path class="st5" d="M291.9,339.5l-9.8-5.6c-1-0.6-2.3,0.1-2.3,1.3v11.3c0,1.2,1.3,1.9,2.3,1.3l9.8-5.6
				C292.9,341.5,292.9,340,291.9,339.5"/>
			<path class="st5" d="M338.3,309.2l-9.8-5.6c-1-0.6-2.3,0.1-2.3,1.3v11.3c0,1.2,1.3,1.9,2.3,1.3l9.8-5.6
				C339.4,311.3,339.4,309.8,338.3,309.2"/>
			<path class="st5" d="M338.3,250.4l-9.8-5.6c-1-0.6-2.3,0.1-2.3,1.3v11.3c0,1.2,1.3,1.9,2.3,1.3l9.8-5.6
				C339.4,252.5,339.4,251,338.3,250.4"/>
			<path class="st5" d="M337.7,194.5l-9.8-5.6c-1-0.6-2.3,0.1-2.3,1.3v11.3c0,1.2,1.3,1.9,2.3,1.3l9.8-5.6
				C338.7,196.6,338.7,195.1,337.7,194.5"/>
			<path class="st5" d="M237.9,134.2l-9.8-5.6c-1-0.6-2.3,0.1-2.3,1.3v11.3c0,1.2,1.3,1.9,2.3,1.3l9.8-5.6
				C238.9,136.2,238.9,134.7,237.9,134.2"/>
			<path class="st5" d="M291.9,160.5l-9.8-5.6c-1-0.6-2.3,0.1-2.3,1.3v11.3c0,1.2,1.3,1.9,2.3,1.3l9.8-5.6
				C292.9,162.6,292.9,161.1,291.9,160.5"/>
		</g>
		<g class="st8">
			<path class="st5" d="M231.5,275.4l-19.2,10.1c-1.3,0.7-2.9-0.4-2.6-1.9l3.7-21.4c0.1-0.6-0.1-1.2-0.5-1.6l-15.6-15.2
				c-1.1-1-0.5-2.9,1-3.1l21.5-3.1c0.6-0.1,1.1-0.5,1.4-1l9.6-19.5c0.7-1.3,2.6-1.3,3.2,0l9.6,19.5c0.3,0.5,0.8,0.9,1.4,1l21.5,3.1
				c1.5,0.2,2.1,2,1,3.1l-15.6,15.2c-0.4,0.4-0.6,1-0.5,1.6l3.7,21.4c0.2,1.5-1.3,2.6-2.6,1.9l-19.2-10.1
				C232.7,275.2,232.1,275.2,231.5,275.4"/>
		</g>
	</g>
</g>
</svg>
