<?xml version="1.0" encoding="UTF-8" standalone="no"?>
<svg
   xmlns:dc="http://purl.org/dc/elements/1.1/"
   xmlns:cc="http://creativecommons.org/ns#"
   xmlns:rdf="http://www.w3.org/1999/02/22-rdf-syntax-ns#"
   xmlns:svg="http://www.w3.org/2000/svg"
   xmlns="http://www.w3.org/2000/svg"
   xmlns:sodipodi="http://sodipodi.sourceforge.net/DTD/sodipodi-0.dtd"
   xmlns:inkscape="http://www.inkscape.org/namespaces/inkscape"
   viewBox="0 0 473.26 93.82"
   id="svg2"
   version="1.1"
   inkscape:version="0.91 r13725"
   sodipodi:docname="logo.svg">
  <metadata
     id="metadata48">
    <rdf:RDF>
      <cc:Work
         rdf:about="">
        <dc:format>image/svg+xml</dc:format>
        <dc:type
           rdf:resource="http://purl.org/dc/dcmitype/StillImage" />
      </cc:Work>
    </rdf:RDF>
  </metadata>
  <sodipodi:namedview
     pagecolor="#ffffff"
     bordercolor="#666666"
     borderopacity="1"
     objecttolerance="10"
     gridtolerance="10"
     guidetolerance="10"
     inkscape:pageopacity="0"
     inkscape:pageshadow="2"
     inkscape:window-width="1881"
     inkscape:window-height="1056"
     id="namedview46"
     showgrid="false"
     inkscape:zoom="0.66348306"
     inkscape:cx="236.63"
     inkscape:cy="46.91"
     inkscape:window-x="1405"
     inkscape:window-y="24"
     inkscape:window-maximized="1"
     inkscape:current-layer="svg2" />
  <defs
     id="defs4">
    <style
       id="style6">.cls-1{fill:#fff;}.cls-2{fill:#e47d32;}</style>
  </defs>
  <title
     id="title8">logo</title>
  <g
     id="Layer_2"
     data-name="Layer 2"
     style="fill:#ffffff">
    <g
       id="Layer_1-2"
       data-name="Layer 1"
       style="fill:#ffffff">
      <path
         class="cls-1"
         d="M146.32,70l-17-23.67V68.75a5.91,5.91,0,0,1-1.92,4.43,7.1,7.1,0,0,1-9.53,0A5.91,5.91,0,0,1,116,68.75V21.08a5.91,5.91,0,0,1,1.92-4.43,7.1,7.1,0,0,1,9.53,0,5.92,5.92,0,0,1,1.92,4.43V41.15l16.81-22.58q2.82-3.76,6.48-3.76A5.77,5.77,0,0,1,157,16.35a5.32,5.32,0,0,1,1.5,3.87,7.25,7.25,0,0,1-1.67,4.66L142.53,42.62,158.8,64.45a6.19,6.19,0,0,1,1.34,4,6.8,6.8,0,0,1-1.71,4.62,5.73,5.73,0,0,1-4.54,2A6.86,6.86,0,0,1,150,73.9,15.63,15.63,0,0,1,146.32,70Z"
         id="path12"
         style="fill:#ffffff" />
      <path
         class="cls-1"
         d="M175.59,21.08a5.91,5.91,0,0,1,1.92-4.43,7.1,7.1,0,0,1,9.53,0A5.92,5.92,0,0,1,189,21.08V68.75A5.91,5.91,0,0,1,187,73.19a7.1,7.1,0,0,1-9.53,0,5.91,5.91,0,0,1-1.92-4.43Z"
         id="path14"
         style="fill:#ffffff" />
      <path
         class="cls-1"
         d="M245.85,28.94a9.68,9.68,0,0,1-3.26-.67,20.88,20.88,0,0,0-6.94-1.09,15.85,15.85,0,0,0-11.75,4.68q-4.64,4.69-4.64,13A17,17,0,0,0,237,62.65a18.74,18.74,0,0,0,6.69-1.17,10.19,10.19,0,0,1,3.93-.84,5.08,5.08,0,0,1,4.85,2.93,6.53,6.53,0,0,1,.75,2.93q0,3.68-4.1,5.77a28.56,28.56,0,0,1-13.38,2.93q-13.63,0-22.16-8.32t-8.53-22q0-13.21,8-21.75t22.58-8.53q7.19,0,11.71,2.34t4.43,5.77a6.78,6.78,0,0,1-.84,3.18A5.59,5.59,0,0,1,245.85,28.94Z"
         id="path16"
         style="fill:#ffffff" />
      <path
         class="cls-1"
         d="M297.2,70l-17-23.67V68.75a5.91,5.91,0,0,1-1.92,4.43,7.1,7.1,0,0,1-9.53,0,5.91,5.91,0,0,1-1.92-4.43V21.08a5.91,5.91,0,0,1,1.92-4.43,7.1,7.1,0,0,1,9.53,0,5.92,5.92,0,0,1,1.92,4.43V41.15L297,18.57q2.82-3.76,6.48-3.76a5.77,5.77,0,0,1,4.33,1.54,5.32,5.32,0,0,1,1.5,3.87,7.25,7.25,0,0,1-1.67,4.66L293.41,42.62l16.27,21.82a6.19,6.19,0,0,1,1.34,4,6.8,6.8,0,0,1-1.71,4.62,5.73,5.73,0,0,1-4.54,2,6.86,6.86,0,0,1-3.87-1.13A15.62,15.62,0,0,1,297.2,70Z"
         id="path18"
         style="fill:#ffffff" />
      <path
         class="cls-2"
         d="M326.47,21.08a5.91,5.91,0,0,1,1.92-4.43,7.1,7.1,0,0,1,9.53,0,5.92,5.92,0,0,1,1.92,4.43V68.75a5.91,5.91,0,0,1-1.92,4.43,7.1,7.1,0,0,1-9.53,0,5.91,5.91,0,0,1-1.92-4.43Z"
         id="path20"
         style="fill:#ffffff" />
      <path
         class="cls-2"
         d="M396.73,28.94a9.68,9.68,0,0,1-3.26-.67,20.88,20.88,0,0,0-6.94-1.09,15.85,15.85,0,0,0-11.75,4.68q-4.64,4.69-4.64,13a17,17,0,0,0,17.73,17.73,18.74,18.74,0,0,0,6.69-1.17,10.19,10.19,0,0,1,3.93-.84,5.08,5.08,0,0,1,4.85,2.93,6.53,6.53,0,0,1,.75,2.93q0,3.68-4.1,5.77a28.56,28.56,0,0,1-13.38,2.93q-13.63,0-22.16-8.32t-8.53-22q0-13.21,8-21.75t22.58-8.53q7.19,0,11.71,2.34t4.43,5.77a6.78,6.78,0,0,1-.84,3.18A5.59,5.59,0,0,1,396.73,28.94Z"
         id="path22"
         style="fill:#ffffff" />
      <path
         class="cls-2"
         d="M442.15,75.19q-13.63,0-22.37-8.28t-8.74-22q0-13,8.66-21.62t22.46-8.66q13.63,0,22.37,8.28t8.74,22q0,13.22-8.82,21.75T442.15,75.19Zm0-48A16.21,16.21,0,0,0,430,32.08q-4.77,4.89-4.77,12.84a17.45,17.45,0,0,0,4.93,12.63,16,16,0,0,0,12,5.1q8,0,12.46-5T459,44.92q0-7.86-4.85-12.8A16.21,16.21,0,0,0,442.15,27.18Z"
         id="path24"
         style="fill:#ffffff" />
      <path
         class="cls-1"
         d="M47,93.82A46.86,46.86,0,1,1,90.39,28.65,47,47,0,0,1,47,93.82ZM47,6.46a40.44,40.44,0,1,0,28.68,69A40.44,40.44,0,0,0,47,6.46Z"
         id="path26"
         style="fill:#ffffff" />
      <path
         class="cls-1"
         d="M53.74,45.68a3.23,3.23,0,0,1-1.61-6l28-15.95a3.23,3.23,0,1,1,3.22,5.61l-28,15.95A3.23,3.23,0,0,1,53.74,45.68Z"
         id="path28"
         style="fill:#ffffff" />
      <path
         class="cls-1"
         d="M53.73,45.68h0a3.24,3.24,0,0,1-3.23-3.24l0-18.7a3.24,3.24,0,0,1,3.24-3.22h0A3.24,3.24,0,0,1,57,23.75l0,18.7A3.24,3.24,0,0,1,53.73,45.68Z"
         id="path30"
         style="fill:#ffffff" />
      <path
         class="cls-1"
         d="M70,54.42A3.23,3.23,0,0,1,68.42,54L52.19,45.29a3.23,3.23,0,1,1,3.08-5.69L71.5,48.34A3.23,3.23,0,0,1,70,54.42Z"
         id="path32"
         style="fill:#ffffff" />
      <path
         class="cls-1"
         d="M47.1,92.73a3.24,3.24,0,0,1-3.24-3.22l-.1-35.78A3.24,3.24,0,0,1,47,50.49h0a3.24,3.24,0,0,1,3.24,3.22l.1,35.78a3.24,3.24,0,0,1-3.23,3.24Z"
         id="path34"
         style="fill:#ffffff" />
      <path
         class="cls-1"
         d="M30.78,66.35a3.23,3.23,0,0,1-1.63-6l16.22-9.4a3.23,3.23,0,1,1,3.26,5.59L32.4,65.91A3.23,3.23,0,0,1,30.78,66.35Z"
         id="path36"
         style="fill:#ffffff" />
      <path
         class="cls-1"
         d="M62.61,66.89a3.23,3.23,0,0,1-1.74-.51L45.25,56.45A3.23,3.23,0,1,1,48.74,51l15.62,9.94a3.23,3.23,0,0,1-1.75,6Z"
         id="path38"
         style="fill:#ffffff" />
      <path
         class="cls-1"
         d="M40.51,45.68a3.23,3.23,0,0,0,1.61-6L12.34,22.72a3.23,3.23,0,1,0-3.22,5.61L38.9,45.25A3.23,3.23,0,0,0,40.51,45.68Z"
         id="path40"
         style="fill:#ffffff" />
      <path
         class="cls-1"
         d="M40.51,45.68h0a3.24,3.24,0,0,0,3.23-3.24l0-18.7a3.24,3.24,0,0,0-3.24-3.22h0a3.24,3.24,0,0,0-3.23,3.24l0,18.7A3.24,3.24,0,0,0,40.51,45.68Z"
         id="path42"
         style="fill:#ffffff" />
      <path
         class="cls-1"
         d="M24.29,54.42A3.23,3.23,0,0,0,25.82,54L42,45.29A3.23,3.23,0,1,0,39,39.6L22.74,48.34a3.23,3.23,0,0,0,1.54,6.08Z"
         id="path44"
         style="fill:#ffffff" />
    </g>
  </g>
</svg>
